<?xml version="1.0" encoding="UTF-8" standalone="no"?>
<svg
   xmlns:dc="http://purl.org/dc/elements/1.1/"
   xmlns:cc="http://creativecommons.org/ns#"
   xmlns:rdf="http://www.w3.org/1999/02/22-rdf-syntax-ns#"
   xmlns:svg="http://www.w3.org/2000/svg"
   xmlns="http://www.w3.org/2000/svg"
   xmlns:xlink="http://www.w3.org/1999/xlink"
   xmlns:sodipodi="http://sodipodi.sourceforge.net/DTD/sodipodi-0.dtd"
   xmlns:inkscape="http://www.inkscape.org/namespaces/inkscape"
   sodipodi:docname="myoLogoNew.svg"
   inkscape:version="1.0 (4035a4fb49, 2020-05-01)"
   id="svg566"
   version="1.1"
   viewBox="0 0 155 40.000002"
   height="40mm"
   width="155mm"
   inkscape:export-filename="C:\Users\Ibra.Guy\Pictures\Myo\myoLogoNameColorImgFull.png"
   inkscape:export-xdpi="81.915001"
   inkscape:export-ydpi="81.915001">
  <defs
     id="defs560">
    <linearGradient
       inkscape:collect="always"
       id="linearGradient886">
      <stop
         style="stop-color:#1a2a6c;stop-opacity:1"
         offset="0"
         id="stop884" />
      <stop
         style="stop-color:#b21f1f;stop-opacity:1"
         offset="1"
         id="stop882" />
    </linearGradient>
    <linearGradient
       id="linearGradient912"
       inkscape:collect="always">
      <stop
         style="stop-color:#b21f1f;stop-opacity:1"
         offset="0"
         id="stop910" />
      <stop
         style="stop-color:#1a2a6c;stop-opacity:1"
         offset="1"
         id="stop908" />
    </linearGradient>
    <rect
       id="rect4715"
       height="153.62489"
       width="259.53961"
       y="97.28611"
       x="230.92087" />
    <linearGradient
       id="linearGradient4579-7"
       inkscape:collect="always">
      <stop
         id="stop4575"
         offset="0"
         style="stop-color:#fc466b;stop-opacity:1;" />
      <stop
         id="stop4577"
         offset="1"
         style="stop-color:#3f5efb;stop-opacity:1" />
    </linearGradient>
    <linearGradient
       gradientTransform="rotate(-30,1028.0218,1655.2493)"
       y2="145.8988"
       x2="181.0506"
       y1="144.3869"
       x1="29.860119"
       gradientUnits="userSpaceOnUse"
       id="linearGradient4664"
       xlink:href="#linearGradient4579-7"
       inkscape:collect="always" />
    <rect
       x="230.92087"
       y="97.28611"
       width="259.53961"
       height="153.62489"
       id="rect4715-1" />
    <rect
       x="230.92087"
       y="97.28611"
       width="259.53961"
       height="153.62489"
       id="rect860" />
    <linearGradient
       inkscape:collect="always"
       xlink:href="#linearGradient912"
       id="linearGradient890"
       x1="235.69511"
       y1="126.19511"
       x2="467.37088"
       y2="126.19511"
       gradientUnits="userSpaceOnUse" />
    <linearGradient
       inkscape:collect="always"
       xlink:href="#linearGradient886"
       id="linearGradient880"
       x1="1.0000002"
       y1="19.67074"
       x2="33.776077"
       y2="19.67074"
       gradientUnits="userSpaceOnUse" />
    <linearGradient
       inkscape:collect="always"
       xlink:href="#linearGradient912"
       id="linearGradient867"
       gradientUnits="userSpaceOnUse"
       x1="235.69511"
       y1="126.19511"
       x2="467.37088"
       y2="126.19511"
       gradientTransform="matrix(2.4470799,0,0,2.4470799,-417.2095,-278.5673)" />
  </defs>
  <sodipodi:namedview
     units="mm"
     inkscape:window-maximized="1"
     inkscape:window-y="-8"
     inkscape:window-x="1912"
     inkscape:window-height="1017"
     inkscape:window-width="1920"
     showgrid="false"
     inkscape:document-rotation="0"
     inkscape:current-layer="text4713-2"
     inkscape:document-units="mm"
     inkscape:cy="103.28078"
     inkscape:cx="385.6938"
     inkscape:zoom="1.4"
     inkscape:pageshadow="2"
     inkscape:pageopacity="0.0"
     borderopacity="1.0"
     bordercolor="#666666"
     pagecolor="#ffffff"
     id="base" />
  <metadata
     id="metadata563">
    <rdf:RDF>
      <cc:Work
         rdf:about="">
        <dc:format>image/svg+xml</dc:format>
        <dc:type
           rdf:resource="http://purl.org/dc/dcmitype/StillImage" />
        <dc:title></dc:title>
      </cc:Work>
    </rdf:RDF>
  </metadata>
  <g
     id="layer1"
     inkscape:groupmode="layer"
     inkscape:label="Layer 1">
    <g
       style="font-style:normal;font-variant:normal;font-weight:normal;font-stretch:normal;font-size:65.384px;line-height:1.25;font-family:'Dancing Script';-inkscape-font-specification:'Dancing Script, @wght=700';font-variant-ligatures:normal;font-variant-caps:normal;font-variant-numeric:normal;font-variant-east-asian:normal;font-variation-settings:'wght' 700;white-space:pre;shape-inside:url(#rect4715);fill:url(#linearGradient890);fill-opacity:1;stroke:none"
       id="text4713"
       transform="matrix(0.64745657,0,0,0.64745657,-110.38668,-73.704265)"
       aria-label="myotics">
      <g
         id="g852">
        <path
           d="m 415.49219,6.6445312 c -1.81334,0 -3.89357,1.2263594 -6.24024,3.6796878 -2.34666,2.346668 -4.85286,5.599762 -7.51953,9.759765 -2.55999,4.159987 -5.17318,8.906906 -7.83984,14.240235 -2.56001,5.226669 -4.96118,10.666987 -7.20117,16.320312 -1.17335,-0.106627 -2.34621,-0.21362 -3.51953,-0.320312 -1.06667,-0.106677 -2.45349,-0.267133 -4.16016,-0.480469 v 4.960938 c 0.96,0.426656 1.92085,0.745647 2.88086,0.958984 1.06666,0.106676 1.97405,0.267149 2.7207,0.480469 -2.55999,6.933328 -4.69371,13.653484 -6.40039,20.160156 -0.35415,1.440192 -0.66369,2.81862 -0.93945,4.154297 -0.51483,0.576653 -1.0594,1.114744 -1.63672,1.605468 -2.13333,1.706676 -4.31859,2.933035 -6.5586,3.679688 -2.23999,0.746669 -4.16171,1.119141 -5.76171,1.119141 -1.70666,0 -3.19852,-0.318992 -4.47852,-0.958985 2.88,-4.373339 5.33272,-9.013265 7.35938,-13.919922 2.13333,-4.906656 3.19921,-9.33263 3.19921,-13.279296 0,-3.519994 -0.95891,-6.56109 -2.8789,-9.121094 -1.81334,-2.560005 -5.01295,-3.839844 -9.59961,-3.839844 -4.26666,0 -7.68023,1.065887 -10.24024,3.199219 -2.45332,2.133331 -4.26612,4.641483 -5.43945,7.521484 -1.06666,2.880001 -1.60156,5.439696 -1.60156,7.679688 0,5.226669 0.74691,9.706122 2.24023,13.439453 1.49334,3.62667 3.948,6.986757 7.36133,10.080078 -2.56,2.986661 -5.28015,5.653332 -8.16016,8 -2.77332,2.240008 -5.1745,3.359375 -7.20117,3.359375 -2.02665,0 -3.46698,-0.6934 -4.32031,-2.080078 -0.74667,-1.386663 -1.11914,-3.145965 -1.11914,-5.279297 0,-2.239992 0.31899,-4.692711 0.95898,-7.359375 0.64001,-2.666665 1.49389,-5.279839 2.56055,-7.839844 1.17333,-2.666664 2.39969,-5.174816 3.67969,-7.521484 1.38666,-2.346652 2.72,-4.319923 4,-5.919922 -0.42667,-0.533333 -1.17357,-0.905804 -2.24024,-1.119141 -0.95999,-0.319996 -1.81192,-0.480468 -2.55859,-0.480468 -2.34667,0 -4.69435,0.960864 -7.04101,2.880859 -2.24,1.813335 -4.32024,4.266054 -6.24024,7.359375 -1.81333,3.093337 -3.25169,6.453424 -4.31836,10.080078 -0.289,0.953719 -0.53149,1.903723 -0.74219,2.849609 -2.14367,3.487409 -4.57604,6.443762 -7.32031,8.830079 -4.8,4.159986 -9.43992,7.147602 -13.91992,8.960942 2.24001,-6.080004 4.26479,-12.160241 6.07812,-18.240239 1.81332,-6.079983 3.25365,-11.413324 4.32032,-16 1.17334,-4.69332 1.75976,-7.839455 1.75976,-9.439453 -1.06666,-0.213304 -1.97208,-0.373777 -2.71875,-0.480469 -0.74667,-0.106693 -1.54706,-0.160157 -2.40039,-0.160157 -2.45333,10e-7 -4.3731,0.746896 -5.75976,2.240235 -1.28001,1.493322 -2.18737,3.145649 -2.72071,4.958984 -0.53333,1.706675 -0.9058,3.360939 -1.11914,4.960938 -0.21333,1.599999 -0.42729,2.772878 -0.64062,3.519531 -1.92,3.093337 -4.10722,6.13248 -6.56055,9.119141 -2.34667,2.986661 -4.79939,5.441316 -7.35937,7.361328 -2.45335,1.919995 -4.85257,2.878906 -7.19922,2.878906 -1.81334,0 -3.03968,-0.586423 -3.67969,-1.759766 -0.63999,-1.173326 -0.96094,-2.560157 -0.96094,-4.160156 0,-2.026671 0.32095,-4.425894 0.96094,-7.199219 0.74667,-2.773324 1.65208,-5.600467 2.71875,-8.480468 1.06667,-2.986661 2.18603,-5.653332 3.35937,-8 1.17333,-2.453329 2.24117,-4.319607 3.20118,-5.59961 -0.32002,-0.960006 -1.06691,-1.813877 -2.24024,-2.560547 -1.17332,-0.853329 -2.39968,-1.493265 -3.67969,-1.919921 -1.17334,-0.533333 -2.08071,-0.798829 -2.7207,-0.798829 -1.28,0 -2.77381,1.279856 -4.48047,3.839844 -1.70667,2.453328 -3.35898,5.599446 -4.95898,9.439453 -1.49332,3.733331 -2.77318,7.572865 -3.83985,11.519532 -0.37631,1.547062 -0.65791,2.976977 -0.88671,4.34375 -0.69104,1.251888 -1.40593,2.518363 -2.17774,3.816406 -2.24001,3.83999 -4.69466,7.093101 -7.36133,9.759765 -2.66666,2.666665 -5.44031,4 -8.32031,4 -1.6,0 -2.66589,-0.425967 -3.19922,-1.279297 -0.53333,-0.959989 -0.80078,-1.974349 -0.80078,-3.041015 0,-1.920012 0.4279,-4.212242 1.28125,-6.878906 0.95999,-2.773325 1.86542,-5.653964 2.71875,-8.640625 0.96001,-3.093338 1.44141,-6.025504 1.44141,-8.798828 0,-2.986662 -0.80039,-5.706812 -2.40039,-8.160157 -1.6,-2.559988 -4.48063,-3.839843 -8.64063,-3.839843 -3.09332,0 -6.02549,0.744958 -8.79883,2.238281 -2.77332,1.493338 -5.38651,3.520073 -7.83984,6.080078 -2.34667,2.453328 -4.53388,5.173495 -6.56055,8.160156 0.64001,-1.813335 1.11946,-3.358669 1.43946,-4.638672 0.42665,-1.386662 0.7476,-2.719997 0.96093,-4 0.21334,-1.386662 0.31836,-2.773494 0.31836,-4.160156 0,-3.306658 -0.69146,-6.347753 -2.07812,-9.121094 -1.38666,-2.880001 -4.05334,-4.320312 -8,-4.320312 -2.66667,0 -5.38682,0.693399 -8.16016,2.080078 -2.66666,1.386662 -5.38683,3.254894 -8.16016,5.601562 -2.66666,2.346652 -5.27983,5.013323 -7.83984,8 -2.45333,2.879985 -4.80102,5.812151 -7.04101,8.798829 0.63999,-2.560005 1.17293,-4.852235 1.59961,-6.878907 0.42665,-2.026655 0.64062,-3.573959 0.64062,-4.640625 0,-1.599999 -0.53294,-2.879838 -1.59961,-3.839844 -1.06667,-0.959989 -2.34652,-1.439453 -3.83984,-1.439453 -1.49334,0 -3.2546,0.479464 -5.28125,1.439453 -2.02667,0.85333 -3.19954,1.865721 -3.51953,3.039063 -0.85333,3.413334 -1.86572,7.41334 -3.03907,12 -1.17332,4.58666 -2.29466,9.068083 -3.36132,13.441406 -1.06667,4.37334 -1.97209,8.052402 -2.71876,11.039063 -0.74666,2.879966 -1.12109,4.373776 -1.12109,4.480466 0,0.53334 0.63992,1.11976 1.91992,1.75977 1.28001,0.74665 2.77381,1.33309 4.48047,1.75976 1.70668,0.53334 3.14699,0.80079 4.32031,0.80079 1.92,-5.33333 4.37272,-10.61318 7.35938,-15.839849 3.09334,-5.333329 6.34643,-10.133727 9.75977,-14.40039 3.51999,-4.373324 6.82658,-7.893883 9.91992,-10.560547 3.19999,-2.666665 5.92016,-4 8.16015,-4 1.17333,0 2.02722,0.425967 2.56055,1.279297 0.53333,0.853329 0.80078,2.028145 0.80078,3.521484 0,2.453328 -0.5349,5.49247 -1.60156,9.119141 -1.06667,3.519994 -2.29303,7.147529 -3.67969,10.880859 -1.38666,3.62667 -2.61302,6.826285 -3.67969,9.599609 -1.06666,2.773325 -1.59961,4.639606 -1.59961,5.599606 0,0.96001 0.58644,1.70691 1.75977,2.24024 1.17334,0.63999 2.50668,1.11945 4,1.43945 1.6,0.32 2.87984,0.48047 3.83984,0.48047 1.17333,-1.92 2.50667,-4.26574 4,-7.039062 1.49334,-2.880002 3.09413,-5.600152 4.80078,-8.160157 4.8,-7.146648 8.80001,-12.586982 12,-16.320312 3.30668,-3.733331 6.18535,-5.59961 8.63868,-5.59961 1.06666,0 1.92055,0.372488 2.56054,1.119141 0.74667,0.640009 1.11914,1.866352 1.11914,3.679688 0,1.919995 -0.37247,4.107218 -1.11914,6.560546 -0.74667,2.346668 -1.49358,4.745891 -2.24023,7.199219 -0.74667,2.453328 -1.11914,4.908 -1.11914,7.361328 0,3.413334 1.01241,6.345499 3.03906,8.798829 2.02667,2.45334 5.12125,3.67969 9.28125,3.67969 4.69332,0 8.85185,-1.54534 12.47852,-4.63867 3.62665,-2.986666 6.77474,-6.721177 9.4414,-11.201177 0.0118,-0.01954 0.0214,-0.03905 0.0332,-0.05859 0.33155,1.692428 0.91388,3.154027 1.75195,4.378907 1.49334,1.919995 3.30612,3.306826 5.43945,4.160156 2.13333,0.746668 4.16009,1.121098 6.08008,1.121098 4.58666,0 8.74714,-1.76126 12.48047,-5.281254 3.73333,-3.519994 7.25192,-7.57348 10.55859,-12.160157 -1.06666,4.053344 -2.3465,8.481254 -3.83984,13.28125 -1.38666,4.693321 -2.66652,8.586351 -3.83984,11.679691 -3.41334,1.6 -6.98738,3.3058 -10.72071,5.11914 -3.62667,1.91999 -7.03828,4.00024 -10.23828,6.24023 -3.2,2.34667 -5.81514,4.85287 -7.8418,7.51953 -2.02667,2.77333 -3.03906,5.86792 -3.03906,9.28125 0,3.62667 1.11939,6.23985 3.35938,7.83985 2.34666,1.70666 4.85482,2.55859 7.52148,2.55859 4.26666,0 8.26667,-1.7593 12,-5.2793 3.73333,-3.41333 7.25192,-8.05326 10.5586,-13.91992 3.41331,-5.86666 6.5614,-12.26589 9.4414,-19.19922 4.16,-1.81333 8.26503,-4.10753 12.31836,-6.88086 3.74949,-2.565431 7.12914,-5.63952 10.14844,-9.208981 0.0348,3.642637 0.88353,6.980774 2.55469,10.009771 1.81333,3.19999 5.11992,4.79882 9.91992,4.79882 4.79999,0 9.5469,-1.59883 14.24023,-4.79882 4.69332,-3.200003 8.8538,-6.934514 12.48047,-11.201177 1.17333,0.426673 2.45318,0.801097 3.83984,1.121094 1.38668,0.213336 2.7735,0.320312 4.16016,0.320312 3.73333,0 7.51939,-1.228296 11.35938,-3.68164 0.66818,-0.433415 1.30541,-0.923487 1.92773,-1.439453 -0.2056,1.841827 -0.3125,3.553395 -0.3125,5.121093 0,5.653326 1.44031,9.865351 4.32031,12.638671 2.88,2.77334 6.66604,4.16016 11.35938,4.16016 5.11999,0 10.08086,-1.49379 14.88086,-4.48047 4.79999,-2.87999 9.22597,-6.879992 13.27929,-12.000001 0.70967,-0.873434 1.39124,-1.770155 2.06055,-2.677735 -0.0744,0.836046 -0.12305,1.634936 -0.12305,2.359375 0,3.946651 1.17287,7.306741 3.51954,10.080081 2.34666,2.77332 5.86721,4.1582 10.56054,4.1582 6.61332,0 12.80055,-2.61319 18.56055,-7.839843 2.44793,-2.221269 4.70132,-4.839878 6.7832,-7.8125 0.20784,6.475858 1.94011,11.334983 5.23828,14.533203 3.62667,3.52001 8.2131,5.2793 13.75977,5.2793 5.43999,0 10.88031,-1.49184 16.32031,-4.47852 5.54665,-2.87998 10.56102,-6.82651 15.04102,-11.839842 0.43279,-0.483111 0.84697,-0.979153 1.26172,-1.47461 0.3454,1.839636 0.88006,3.664954 1.61523,5.47461 1.38666,3.306662 3.67891,6.024872 6.87891,8.158202 3.30667,2.24001 7.6276,3.36133 12.96093,3.36133 4.90666,0 9.27914,-1.06784 13.11914,-3.20117 3.94667,-2.13333 6.77381,-5.38643 8.48047,-9.759769 5.12,-0.853329 9.59945,-3.092079 13.43946,-6.71875 3.83999,-3.73333 6.77411,-8.640721 8.80078,-14.720703 l -1.91992,-1.439453 c -2.88001,5.546666 -5.91915,9.758671 -9.11915,12.638672 -3.19999,2.773325 -6.45506,4.588077 -9.76171,5.441406 0.2133,-0.959989 0.37377,-1.97435 0.48047,-3.041015 0.10669,-1.066666 0.16015,-2.239529 0.16015,-3.519532 0,-4.799996 -0.80039,-9.493418 -2.40039,-14.080078 -1.49332,-4.586676 -3.03867,-8.90761 -4.63867,-12.960937 -1.49334,-4.159987 -2.24024,-7.839065 -2.24024,-11.039063 0,-1.493339 0.10698,-2.666202 0.32032,-3.519531 0.31999,-0.853346 0.47851,-1.600242 0.47851,-2.240235 -0.10666,-0.853329 -0.47913,-1.600225 -1.11914,-2.240234 -0.53333,-0.639993 -1.4407,-0.960937 -2.7207,-0.960937 -1.92,0 -3.62582,0.907368 -5.11914,2.720703 -1.38668,1.706659 -2.08008,4.694274 -2.08008,8.960937 v 1.59961 c -2.02666,4.479999 -4.47937,8.586982 -7.35938,12.320312 -2.77334,3.62667 -5.49349,6.826285 -8.16015,9.599609 -0.53333,0.533333 -1.38722,1.012781 -2.56055,1.439454 -0.008,0.003 -0.0159,0.0067 -0.0234,0.0098 l -1.2539,-1.128906 c -0.3071,0.767746 -0.63022,1.519421 -0.96289,2.259766 -0.41938,0.245179 -0.83411,0.482503 -1.2793,0.779297 -1.28,0.746653 -2.34784,1.973012 -3.20117,3.679687 -0.66567,1.331332 -1.06259,3.098276 -1.20899,5.273437 -0.83428,1.11407 -1.7089,2.184803 -2.6289,3.207032 -3.84001,4.160003 -7.94504,7.413114 -12.31836,9.759765 -4.37332,2.346671 -8.58728,3.519531 -12.64063,3.519531 -4.47998,0 -7.51914,-1.22636 -9.11914,-3.679687 -1.49334,-2.560004 -2.24023,-5.333651 -2.24023,-8.320312 0,-3.519994 0.74689,-7.359528 2.24023,-11.519532 1.6,-4.266663 3.6248,-8.266669 6.07813,-12 2.55999,-3.83999 5.28015,-6.932628 8.16015,-9.279297 2.98667,-2.453328 5.81381,-3.679687 8.48047,-3.679687 1.17335,0 1.97374,0.265495 2.40039,0.798828 0.42668,0.426673 0.64063,1.066593 0.64063,1.919922 0,3.199998 -0.58644,5.813188 -1.75977,7.839844 -1.17334,2.026671 -2.29466,3.413487 -3.36132,4.160156 1.28,2.026655 2.93426,3.041016 4.96093,3.041016 2.45333,0 4.37311,-1.386832 5.75977,-4.160157 1.49334,-2.880001 2.24023,-5.81412 2.24023,-8.800781 0,-2.986661 -1.01434,-5.599836 -3.04101,-7.839844 -1.92,-2.239991 -5.11961,-3.359375 -9.59961,-3.359375 -4.37333,0 -8.69232,1.172864 -12.95899,3.519532 -4.16,2.346668 -7.94799,5.546282 -11.36132,9.599609 -3.41334,3.946667 -6.13351,8.42809 -8.16016,13.441406 -1.05242,2.603346 -1.82417,5.235612 -2.33008,7.896485 -3.03666,4.951979 -6.00272,8.686194 -8.89258,11.142578 -4.26666,3.62667 -8.21319,5.439453 -11.83984,5.439453 -2.34667,0 -4.15945,-0.532944 -5.43945,-1.599609 -1.17333,-1.173343 -1.75977,-3.465573 -1.75977,-6.878907 0,-3.519994 0.80039,-7.201025 2.40039,-11.041015 1.70666,-3.946667 3.62643,-7.732705 5.75977,-11.359375 2.24,-3.626654 4.15976,-6.826269 5.75976,-9.59961 1.70666,-2.773324 2.56055,-4.853572 2.56055,-6.240234 0,-1.493339 -0.4814,-2.614659 -1.44141,-3.361328 -0.95999,-0.85333 -2.07937,-1.279297 -3.35937,-1.279297 -2.34667,0 -4.6924,1.172863 -7.03907,3.519531 -2.34665,2.239992 -4.53387,5.174111 -6.56054,8.800781 -2.02667,3.626671 -3.83946,7.519701 -5.43946,11.679688 -1.37195,3.723892 -2.4612,7.305969 -3.29296,10.759766 -3.02594,4.586847 -6.35824,8.474766 -10.00586,11.640624 -5.54667,4.799997 -10.98699,7.199218 -16.32032,7.199218 -2.98666,0 -5.17191,-0.90541 -6.55859,-2.718749 -1.38666,-1.813319 -2.08008,-4.90791 -2.08008,-9.28125 0,-5.226653 0.80039,-10.559994 2.40039,-16 1.70668,-5.546665 3.67993,-10.933503 5.91992,-16.160156 h 0.95899 0.96094 c 4.48,-0.106676 9.17342,-0.318675 14.08007,-0.638672 4.90666,-0.319996 10.2935,-0.747917 16.16016,-1.28125 v -5.279297 c -3.94665,0.426657 -7.84163,0.745648 -11.68164,0.958985 -3.73333,0.106692 -7.94535,0.160156 -12.63867,0.160156 h -2.40039 -2.56055 c 2.98666,-5.973339 6.08125,-11.572159 9.28125,-16.798828 3.2,-5.333329 5.86667,-9.973272 8,-13.919922 2.24001,-3.946667 3.35938,-6.987762 3.35938,-9.121094 0,-1.4933386 -0.47945,-2.6127055 -1.43946,-3.3593749 -0.95999,-0.8533294 -1.97435,-1.2792969 -3.04101,-1.2792969 z m 43.85742,12.6386718 c -2.98666,0 -5.86728,0.907368 -8.64063,2.720703 -2.77332,1.813319 -4.16015,4.000543 -4.16015,6.560547 0,2.133332 0.80039,3.732162 2.40039,4.798828 1.70666,0.960006 3.57294,1.441407 5.59961,1.441407 2.88,0 5.54667,-1.014345 8,-3.041016 2.45333,-2.133332 3.68164,-4.320555 3.68164,-6.560547 0,-2.240008 -0.69342,-3.785342 -2.08008,-4.638672 -1.28,-0.853329 -2.88079,-1.28125 -4.80078,-1.28125 z M 358.19727,51.763672 c 1.49333,0 2.6127,0.586423 3.35937,1.759766 0.74665,1.066665 1.12109,2.827921 1.12109,5.28125 0,3.626654 -0.90738,7.57318 -2.7207,11.839843 -1.81333,4.266664 -4.00054,8.26667 -6.56055,12 -1.49332,-1.813319 -2.66618,-4.321487 -3.51953,-7.521484 -0.74665,-3.199998 -1.11914,-5.920148 -1.11914,-8.160156 0,-4.373324 1.06589,-7.998906 3.19922,-10.878907 2.13333,-2.880001 4.21358,-4.320312 6.24024,-4.320312 z m 181.33203,6.880859 c 1.17332,4.906673 2.3462,9.705118 3.51953,14.398438 1.17331,4.693336 1.81518,9.440238 1.92187,14.240234 0,0.533333 -0.0535,1.333725 -0.16015,2.400391 0,0.960006 -0.10698,1.813894 -0.32032,2.560547 -4.26666,-1.066666 -8.05465,-2.879465 -11.36132,-5.439453 -3.30666,-2.560005 -5.81288,-5.280156 -7.51953,-8.160157 2.23999,-2.346652 4.64116,-5.441243 7.20117,-9.28125 2.55999,-3.83999 4.79874,-7.412076 6.71875,-10.71875 z m -16.32032,25.759766 c 1.92,2.559988 4.64017,5.066187 8.16016,7.519531 3.51999,2.453328 7.4665,4.159151 11.83984,5.119141 -1.06666,2.026671 -2.50502,3.573961 -4.31836,4.640621 -1.81333,1.06667 -3.78854,1.59961 -5.92187,1.59961 -3.94667,0 -6.93233,-1.54533 -8.95898,-4.638669 -2.02668,-3.093321 -3.03907,-6.399928 -3.03907,-9.919922 0,-2.560004 0.74495,-4.000316 2.23828,-4.320312 z M 279.0957,115.44336 c -3.73333,8.53333 -7.41434,14.93451 -11.04101,19.20117 -3.62666,4.26666 -6.4538,6.39844 -8.48047,6.39844 -1.06667,0 -1.86511,-0.47946 -2.39844,-1.43945 -0.42666,-0.96001 -0.64062,-1.9724 -0.64062,-3.03907 0,-2.66666 1.17288,-5.27985 3.51953,-7.83984 2.34667,-2.56001 5.22729,-5.01466 8.64062,-7.36133 3.52,-2.23999 6.98706,-4.21325 10.40039,-5.91992 z"
           transform="matrix(0.40865032,0,0,0.40865032,170.49279,113.83662)"
           style="font-style:normal;font-variant:normal;font-weight:normal;font-stretch:normal;font-size:65.384px;font-family:'Dancing Script';-inkscape-font-specification:'Dancing Script, @wght=700';font-variant-ligatures:normal;font-variant-caps:normal;font-variant-numeric:normal;font-variant-east-asian:normal;font-variation-settings:'wght' 700;fill:url(#linearGradient867);stroke-width:2.44708"
           id="path856" />
      </g>
    </g>
    <g
       style="font-style:normal;font-variant:normal;font-weight:normal;font-stretch:normal;font-size:12.4404px;line-height:1.25;font-family:Montserrat;-inkscape-font-specification:'Montserrat, weight=255';font-variant-ligatures:normal;font-variant-caps:normal;font-variant-numeric:normal;font-variant-east-asian:normal;letter-spacing:3.29306px;white-space:pre;shape-inside:url(#rect4715-1);fill:#000000;fill-opacity:1;stroke:none"
       id="text4713-2"
       transform="matrix(0.41615751,0,0,0.39795765,-16.21728,-6.6345805)"
       aria-label="ROBOTS FOR YOU" />
    <path
       d="m 6.8306555,1.5342022 -0.045194,0.099292 A 22.216023,23.471047 60 0 0 3.8371019,27.448296 22.216023,23.471047 60 0 0 14.745157,36.714411 22.216023,23.471047 60 0 1 22.873293,29.125509 22.216023,23.471047 60 0 1 33.509681,25.880709 22.216023,23.471047 60 0 0 30.93916,11.800916 22.216023,23.471047 60 0 0 6.9156673,1.4851195 22.216023,23.471047 60 0 0 6.8690657,1.5379824 Z m 6.2547425,1.6255201 a 18.176747,19.950369 60 0 1 15.150369,8.6531927 18.176747,19.950369 60 0 1 1.970589,11.596512 18.176747,19.950369 60 0 0 -9.001043,2.827053 18.176747,19.950369 60 0 0 -6.948826,6.381608 18.176747,19.950369 60 0 1 -9.0574391,-7.504917 18.176747,19.950369 60 0 1 0.023095,-17.3387217 l 5.5203401,0.5352683 z m -1.007948,7.4421437 0.553761,5.643202 -4.216451,3.484587 5.401695,1.414588 2.096437,5.311081 2.784634,-4.768812 5.512099,-0.201889 -3.680967,-4.361888 1.310426,-5.436231 -5.059462,2.073287 z m 10.936482,19.120111 c -0.64469,0.367468 -1.242007,0.817499 -1.774527,1.342356 -0.272082,0.777339 -0.206736,1.573204 0.483341,2.16198 0,0 0.497881,-1.23068 1.160258,-1.337652 0,0 1.595641,0.779141 3.475427,0.699675 0,0 -1.044252,-1.905028 -0.787422,-2.469701 0.340092,-0.750164 2.067417,-0.430428 2.067417,-0.430428 -0.154818,-0.451861 -0.559975,-0.825258 -1.087325,-1.076968 -1.25665,0.115509 -2.462682,0.498291 -3.537169,1.110738 z m -3.371284,2.582819 c -0.883056,0.847802 -1.663562,1.796345 -2.325524,2.826086 0.556602,1.319495 2.026676,2.487943 4.874874,3.210601 0,0 0.164023,-1.167396 0.841926,-2.86905 3.157437,1.630618 5.119222,2.834601 5.119222,2.834601 1.400769,-3.668991 1.446305,-5.022776 1.327954,-6.977795 1.662705,0.06095 2.708082,0.271379 2.708082,0.271379 -0.07682,-1.570541 -0.407529,-2.762123 -0.933054,-3.63695 -0.258607,-0.01283 -0.51749,-0.01934 -0.776413,-0.01934 -0.796929,-6e-6 -1.592664,0.06092 -2.380324,0.182138 0.511935,0.518498 0.963349,1.230503 1.307873,2.193501 0,0 -0.726229,-0.127216 -1.882857,-0.146155 0.06548,1.30974 0.556385,2.95443 -0.449997,5.434513 0,0 -1.8894,-1.517682 -4.073346,-2.568809 -0.486327,1.150169 -0.610548,1.935291 -0.610548,1.935291 -1.587119,-0.883168 -2.413409,-1.797444 -2.747868,-2.670022 z"
       style="display:inline;fill:url(#linearGradient880);fill-opacity:1;fill-rule:evenodd;stroke-width:0.0899479"
       id="path41-8-8-9-5-4-4" />
  </g>
</svg>
