<?xml version="1.0" encoding="UTF-8" standalone="no"?>
<svg
   xmlns:dc="http://purl.org/dc/elements/1.1/"
   xmlns:cc="http://creativecommons.org/ns#"
   xmlns:rdf="http://www.w3.org/1999/02/22-rdf-syntax-ns#"
   xmlns:svg="http://www.w3.org/2000/svg"
   xmlns="http://www.w3.org/2000/svg"
   xmlns:xlink="http://www.w3.org/1999/xlink"
   xmlns:sodipodi="http://sodipodi.sourceforge.net/DTD/sodipodi-0.dtd"
   xmlns:inkscape="http://www.inkscape.org/namespaces/inkscape"
   inkscape:export-ydpi="30"
   inkscape:export-xdpi="30"
   inkscape:export-filename="C:\Users\Ibra.Guy\Myotics\Software\Myotics\assets\myoLogoNameColorImgFull.png"
   width="170mm"
   height="50mm"
   viewBox="0 0 170 50.000003"
   version="1.1"
   id="svg566"
   inkscape:version="1.0 (4035a4fb49, 2020-05-01)"
   sodipodi:docname="myoLogoBlur.svg">
  <defs
     id="defs560">
    <linearGradient
       id="linearGradient886"
       inkscape:collect="always">
      <stop
         id="stop884"
         offset="0"
         style="stop-color:#1a2a6c;stop-opacity:1" />
      <stop
         id="stop882"
         offset="1"
         style="stop-color:#b21f1f;stop-opacity:1" />
    </linearGradient>
    <linearGradient
       inkscape:collect="always"
       id="linearGradient912">
      <stop
         id="stop910"
         offset="0"
         style="stop-color:#b21f1f;stop-opacity:1" />
      <stop
         id="stop908"
         offset="1"
         style="stop-color:#1a2a6c;stop-opacity:1" />
    </linearGradient>
    <rect
       x="230.92087"
       y="97.28611"
       width="259.53961"
       height="153.62489"
       id="rect4715" />
    <linearGradient
       inkscape:collect="always"
       id="linearGradient4579-7">
      <stop
         style="stop-color:#fc466b;stop-opacity:1;"
         offset="0"
         id="stop4575" />
      <stop
         style="stop-color:#3f5efb;stop-opacity:1"
         offset="1"
         id="stop4577" />
    </linearGradient>
    <linearGradient
       inkscape:collect="always"
       xlink:href="#linearGradient4579-7"
       id="linearGradient4664"
       gradientUnits="userSpaceOnUse"
       x1="29.860119"
       y1="144.3869"
       x2="181.0506"
       y2="145.8988"
       gradientTransform="rotate(-30,1028.0218,1655.2493)" />
    <rect
       id="rect4715-1"
       height="153.62489"
       width="259.53961"
       y="97.28611"
       x="230.92087" />
    <rect
       id="rect860"
       height="153.62489"
       width="259.53961"
       y="97.28611"
       x="230.92087" />
    <linearGradient
       gradientUnits="userSpaceOnUse"
       y2="126.19511"
       x2="467.37088"
       y1="126.19511"
       x1="235.69511"
       id="linearGradient890"
       xlink:href="#linearGradient912"
       inkscape:collect="always" />
    <linearGradient
       gradientUnits="userSpaceOnUse"
       y2="19.67074"
       x2="33.776077"
       y1="19.67074"
       x1="1.0000002"
       id="linearGradient880"
       xlink:href="#linearGradient886"
       inkscape:collect="always"
       gradientTransform="translate(7.9375004,4.7625002)" />
    <linearGradient
       gradientTransform="matrix(2.4470799,0,0,2.4470799,-417.2095,-278.5673)"
       y2="126.19511"
       x2="467.37088"
       y1="126.19511"
       x1="235.69511"
       gradientUnits="userSpaceOnUse"
       id="linearGradient867"
       xlink:href="#linearGradient912"
       inkscape:collect="always" />
    <linearGradient
       y2="126.19511"
       x2="467.37088"
       y1="126.19511"
       x1="235.69511"
       gradientTransform="matrix(2.4470799,0,0,2.4470799,-385.20696,-116.08136)"
       gradientUnits="userSpaceOnUse"
       id="linearGradient95"
       xlink:href="#linearGradient912"
       inkscape:collect="always" />
    <filter
       id="filter166"
       inkscape:label="Blur"
       style="color-interpolation-filters:sRGB">
      <feGaussianBlur
         id="feGaussianBlur164"
         result="blur"
         stdDeviation="2 2" />
    </filter>
    <linearGradient
       inkscape:collect="always"
       xlink:href="#linearGradient912"
       id="linearGradient856"
       gradientUnits="userSpaceOnUse"
       x1="235.69511"
       y1="126.19511"
       x2="467.37088"
       y2="126.19511" />
  </defs>
  <sodipodi:namedview
     id="base"
     pagecolor="#ffffff"
     bordercolor="#666666"
     borderopacity="1.0"
     inkscape:pageopacity="0.0"
     inkscape:pageshadow="2"
     inkscape:zoom="1.4"
     inkscape:cx="369.97951"
     inkscape:cy="131.85221"
     inkscape:document-units="mm"
     inkscape:current-layer="layer1"
     inkscape:document-rotation="0"
     showgrid="false"
     inkscape:window-width="1920"
     inkscape:window-height="1017"
     inkscape:window-x="1912"
     inkscape:window-y="-8"
     inkscape:window-maximized="1"
     units="mm" />
  <metadata
     id="metadata563">
    <rdf:RDF>
      <cc:Work
         rdf:about="">
        <dc:format>image/svg+xml</dc:format>
        <dc:type
           rdf:resource="http://purl.org/dc/dcmitype/StillImage" />
        <dc:title />
      </cc:Work>
    </rdf:RDF>
  </metadata>
  <g
     inkscape:label="Layer 1"
     inkscape:groupmode="layer"
     id="layer1">
    <path
       style="font-style:normal;font-variant:normal;font-weight:normal;font-stretch:normal;font-size:65.384px;line-height:1.25;font-family:'Dancing Script';-inkscape-font-specification:'Dancing Script, @wght=700';font-variant-ligatures:normal;font-variant-caps:normal;font-variant-numeric:normal;font-variant-east-asian:normal;font-variation-settings:'wght' 700;letter-spacing:3.29306px;white-space:pre;fill:#000000;fill-opacity:0;stroke:none;stroke-width:2.44708;filter:url(#filter166)"
       sodipodi:type="inkscape:offset"
       inkscape:radius="2.21912"
       inkscape:original="M 65.882812 77.146484 A 22.216023 23.471047 60.000005 0 0 61.068359 77.632812 A 22.216023 23.471047 60.000005 0 0 61.023438 77.685547 L 60.984375 77.681641 L 60.939453 77.78125 A 22.216023 23.471047 60.000005 0 0 57.990234 103.5957 A 22.216023 23.471047 60.000005 0 0 68.898438 112.86133 A 22.216023 23.471047 60.000005 0 1 77.027344 105.27148 A 22.216023 23.471047 60.000005 0 1 87.664062 102.02734 A 22.216023 23.471047 60.000005 0 0 85.091797 87.947266 A 22.216023 23.471047 60.000005 0 0 65.882812 77.146484 z M 164.08594 77.90625 C 163.60616 77.90625 163.05644 78.229791 162.43555 78.878906 C 161.81466 79.49979 161.15086 80.360268 160.44531 81.460938 C 159.76798 82.5616 159.07664 83.817411 158.37109 85.228516 C 157.69375 86.611406 157.0575 88.051102 156.46484 89.546875 C 156.15439 89.518645 155.8456 89.491111 155.53516 89.462891 C 155.25293 89.434661 154.88514 89.39238 154.43359 89.335938 L 154.43359 90.648438 C 154.68759 90.761329 154.94131 90.845899 155.19531 90.902344 C 155.47753 90.930574 155.71847 90.972849 155.91602 91.029297 C 155.23869 92.863736 154.67422 94.641727 154.22266 96.363281 C 154.12896 96.744335 154.04757 97.107543 153.97461 97.460938 C 153.83839 97.613511 153.69376 97.756885 153.54102 97.886719 C 152.97658 98.338281 152.39736 98.661823 151.80469 98.859375 C 151.21203 99.056927 150.70458 99.15625 150.28125 99.15625 C 149.8297 99.15625 149.43437 99.071676 149.0957 98.902344 C 149.8577 97.745235 150.50674 96.516971 151.04297 95.21875 C 151.60741 93.920535 151.88867 92.751249 151.88867 91.707031 C 151.88867 90.775697 151.63495 89.970299 151.12695 89.292969 C 150.64718 88.615633 149.80144 88.277344 148.58789 88.277344 C 147.459 88.277344 146.55624 88.5586 145.87891 89.123047 C 145.2298 89.687486 144.7499 90.351283 144.43945 91.113281 C 144.15723 91.87528 144.01562 92.551869 144.01562 93.144531 C 144.01562 94.52742 144.21427 95.713399 144.60938 96.701172 C 145.00448 97.660728 145.65353 98.550704 146.55664 99.369141 C 145.87931 100.15936 145.15848 100.86348 144.39648 101.48438 C 143.66271 102.07704 143.02841 102.37305 142.49219 102.37305 C 141.95597 102.37305 141.5754 102.19111 141.34961 101.82422 C 141.15206 101.45733 141.05273 100.99023 141.05273 100.42578 C 141.05273 99.833118 141.1373 99.184076 141.30664 98.478516 C 141.47597 97.772964 141.70215 97.081634 141.98438 96.404297 C 142.29483 95.698745 142.61837 95.034954 142.95703 94.414062 C 143.32392 93.793177 143.67696 93.272935 144.01562 92.849609 C 143.90274 92.708495 143.70606 92.609186 143.42383 92.552734 C 143.16983 92.468074 142.94364 92.425781 142.74609 92.425781 C 142.1252 92.425781 141.50369 92.679506 140.88281 93.1875 C 140.29014 93.667285 139.74042 94.316323 139.23242 95.134766 C 138.75264 95.95321 138.37207 96.843177 138.08984 97.802734 C 138.01334 98.055067 137.94832 98.306374 137.89258 98.556641 C 137.3254 99.479351 136.68312 100.2612 135.95703 100.89258 C 134.68703 101.99324 133.45877 102.7839 132.27344 103.26367 C 132.86611 101.65501 133.40108 100.04617 133.88086 98.4375 C 134.36063 96.828836 134.74317 95.416679 135.02539 94.203125 C 135.33584 92.961349 135.49023 92.130358 135.49023 91.707031 C 135.208 91.650571 134.96903 91.606353 134.77148 91.578125 C 134.57392 91.549895 134.36054 91.537109 134.13477 91.537109 C 133.48565 91.537109 132.97821 91.733796 132.61133 92.128906 C 132.27266 92.524017 132.0337 92.961621 131.89258 93.441406 C 131.75147 93.892962 131.65215 94.330573 131.5957 94.753906 C 131.5392 95.177239 131.48222 95.487995 131.42578 95.685547 C 130.91778 96.503996 130.34052 97.307436 129.69141 98.097656 C 129.07052 98.887877 128.42147 99.536924 127.74414 100.04492 C 127.09502 100.55292 126.45877 100.80664 125.83789 100.80664 C 125.3581 100.80664 125.03457 100.65224 124.86523 100.3418 C 124.6959 100.03136 124.61133 99.663567 124.61133 99.240234 C 124.61133 98.70401 124.69589 98.06972 124.86523 97.335938 C 125.06279 96.602169 125.30175 95.853795 125.58398 95.091797 C 125.8662 94.301576 126.16221 93.597448 126.47266 92.976562 C 126.7831 92.327449 127.0663 91.832813 127.32031 91.494141 C 127.23561 91.240144 127.037 91.013957 126.72656 90.816406 C 126.41612 90.590625 126.09259 90.421478 125.75391 90.308594 C 125.44347 90.167481 125.20253 90.097656 125.0332 90.097656 C 124.69453 90.097656 124.29922 90.435951 123.84766 91.113281 C 123.39611 91.762395 122.96044 92.595326 122.53711 93.611328 C 122.142 94.599107 121.80175 95.613978 121.51953 96.658203 C 121.41993 97.067531 121.3457 97.44697 121.28516 97.808594 C 121.10232 98.139827 120.91319 98.474915 120.70898 98.818359 C 120.11632 99.834354 119.46727 100.69483 118.76172 101.40039 C 118.05616 102.10595 117.32255 102.45898 116.56055 102.45898 C 116.13722 102.45898 115.85595 102.34491 115.71484 102.11914 C 115.57373 101.86514 115.50195 101.59667 115.50195 101.31445 C 115.50195 100.80644 115.61602 100.20165 115.8418 99.496094 C 116.0958 98.762312 116.33477 97.999204 116.56055 97.208984 C 116.81455 96.39054 116.94141 95.614634 116.94141 94.880859 C 116.94141 94.090638 116.72997 93.37177 116.30664 92.722656 C 115.8833 92.045326 115.12215 91.707031 114.02148 91.707031 C 113.20304 91.707031 112.42714 91.903718 111.69336 92.298828 C 110.95958 92.693939 110.26825 93.228914 109.61914 93.90625 C 108.99825 94.555358 108.41903 95.276185 107.88281 96.066406 C 108.05214 95.586634 108.179 95.176556 108.26367 94.837891 C 108.37655 94.471003 108.46113 94.119915 108.51758 93.78125 C 108.57408 93.414363 108.60156 93.046576 108.60156 92.679688 C 108.60156 91.804799 108.41962 90.999407 108.05273 90.265625 C 107.68585 89.503627 106.97977 89.123047 105.93555 89.123047 C 105.22999 89.123047 104.50917 89.306934 103.77539 89.673828 C 103.06984 90.040716 102.35096 90.535358 101.61719 91.15625 C 100.91163 91.777135 100.22031 92.483217 99.542969 93.273438 C 98.893854 94.035436 98.272351 94.809382 97.679688 95.599609 C 97.849018 94.922272 97.990625 94.317474 98.103516 93.78125 C 98.2164 93.245027 98.273437 92.83496 98.273438 92.552734 C 98.273438 92.129407 98.131829 91.791113 97.849609 91.537109 C 97.567383 91.283112 97.229094 91.15625 96.833984 91.15625 C 96.438874 91.15625 95.971764 91.283112 95.435547 91.537109 C 94.899324 91.76289 94.590527 92.029396 94.505859 92.339844 C 94.280085 93.242956 94.011621 94.302071 93.701172 95.515625 C 93.390729 96.729179 93.09472 97.915158 92.8125 99.072266 C 92.53028 100.22937 92.289355 101.20197 92.091797 101.99219 C 91.894245 102.75418 91.794922 103.1495 91.794922 103.17773 C 91.794922 103.31884 91.964062 103.47519 92.302734 103.64453 C 92.641399 103.84208 93.036725 103.99649 93.488281 104.10938 C 93.939837 104.25048 94.322371 104.32227 94.632812 104.32227 C 95.140813 102.91116 95.789857 101.51375 96.580078 100.13086 C 97.398521 98.719742 98.258998 97.449199 99.162109 96.320312 C 100.09344 95.163203 100.96866 94.23095 101.78711 93.525391 C 102.63377 92.819838 103.35265 92.46875 103.94531 92.46875 C 104.25575 92.46875 104.48193 92.58086 104.62305 92.806641 C 104.76415 93.032415 104.83398 93.343171 104.83398 93.738281 C 104.83398 94.387389 104.69238 95.190835 104.41016 96.150391 C 104.12794 97.081725 103.80438 98.041518 103.4375 99.029297 C 103.07061 99.988854 102.74511 100.83654 102.46289 101.57031 C 102.18067 102.30409 102.04102 102.79679 102.04102 103.05078 C 102.04102 103.30479 102.19541 103.50341 102.50586 103.64453 C 102.8163 103.81386 103.16934 103.94072 103.56445 104.02539 C 103.98778 104.11009 104.32608 104.15234 104.58008 104.15234 C 104.89052 103.64434 105.24356 103.02283 105.63867 102.28906 C 106.03379 101.52705 106.45665 100.80819 106.9082 100.13086 C 108.1782 98.23997 109.23732 96.800272 110.08398 95.8125 C 110.95887 94.824721 111.72003 94.330078 112.36914 94.330078 C 112.65136 94.330078 112.87754 94.429405 113.04688 94.626953 C 113.24443 94.796289 113.34375 95.119831 113.34375 95.599609 C 113.34375 96.107603 113.24448 96.686831 113.04688 97.335938 C 112.84932 97.956829 112.65263 98.59112 112.45508 99.240234 C 112.25752 99.889342 112.1582 100.54033 112.1582 101.18945 C 112.1582 102.09256 112.42667 102.86847 112.96289 103.51758 C 113.49911 104.16669 114.3173 104.49023 115.41797 104.49023 C 116.65974 104.49023 117.75919 104.08211 118.71875 103.26367 C 119.6783 102.47345 120.51124 101.48416 121.2168 100.29883 C 121.2198 100.29383 121.22356 100.2883 121.22656 100.2832 C 121.31426 100.73098 121.46771 101.11928 121.68945 101.44336 C 122.08456 101.95136 122.56447 102.3172 123.12891 102.54297 C 123.69335 102.74053 124.23028 102.83984 124.73828 102.83984 C 125.95183 102.83984 127.05324 102.3747 128.04102 101.44336 C 129.0288 100.51203 129.95909 99.438169 130.83398 98.224609 C 130.55176 99.297056 130.21347 100.46828 129.81836 101.73828 C 129.45147 102.98005 129.11317 104.01164 128.80273 104.83008 C 127.89962 105.25342 126.95262 105.7038 125.96484 106.18359 C 125.00528 106.69158 124.10252 107.24132 123.25586 107.83398 C 122.40919 108.45487 121.71787 109.11867 121.18164 109.82422 C 120.64542 110.558 120.37695 111.37619 120.37695 112.2793 C 120.37695 113.23886 120.67296 113.93018 121.26562 114.35352 C 121.88652 114.80507 122.55031 115.03125 123.25586 115.03125 C 124.38475 115.03125 125.44386 114.56611 126.43164 113.63477 C 127.41942 112.73166 128.34972 111.50339 129.22461 109.95117 C 130.12771 108.39895 130.96066 106.70553 131.72266 104.87109 C 132.82332 104.39132 133.90998 103.78456 134.98242 103.05078 C 135.97448 102.37201 136.86911 101.55965 137.66797 100.61523 C 137.67697 101.57901 137.90159 102.46225 138.34375 103.26367 C 138.82353 104.11033 139.69875 104.5332 140.96875 104.5332 C 142.23875 104.5332 143.49456 104.11033 144.73633 103.26367 C 145.9781 102.41701 147.07755 101.42772 148.03711 100.29883 C 148.34756 100.41172 148.68781 100.51104 149.05469 100.5957 C 149.42159 100.6522 149.78741 100.68164 150.1543 100.68164 C 151.14208 100.68164 152.14417 100.35614 153.16016 99.707031 C 153.33695 99.592359 153.50526 99.462688 153.66992 99.326172 C 153.61552 99.813487 153.58789 100.26686 153.58789 100.68164 C 153.58789 102.17742 153.96847 103.29162 154.73047 104.02539 C 155.49247 104.75917 156.49455 105.125 157.73633 105.125 C 159.09099 105.125 160.40383 104.72967 161.67383 103.93945 C 162.94382 103.17745 164.11506 102.12029 165.1875 100.76562 C 165.37527 100.53453 165.55534 100.29677 165.73242 100.05664 C 165.71272 100.27785 165.69922 100.48997 165.69922 100.68164 C 165.69922 101.72586 166.00997 102.61387 166.63086 103.34766 C 167.25175 104.08143 168.18205 104.44727 169.42383 104.44727 C 171.1736 104.44727 172.81194 103.75594 174.33594 102.37305 C 174.98362 101.78534 175.58003 101.09314 176.13086 100.30664 C 176.18586 102.02004 176.64297 103.30615 177.51562 104.15234 C 178.47518 105.08367 179.68869 105.54883 181.15625 105.54883 C 182.59558 105.54883 184.03528 105.15351 185.47461 104.36328 C 186.94216 103.60129 188.26974 102.55691 189.45508 101.23047 C 189.56959 101.10264 189.67933 100.97289 189.78906 100.8418 C 189.88046 101.32854 190.02033 101.81026 190.21484 102.28906 C 190.58172 103.16395 191.18849 103.88282 192.03516 104.44727 C 192.91005 105.03994 194.05373 105.33789 195.46484 105.33789 C 196.76306 105.33789 197.91955 105.05467 198.93555 104.49023 C 199.97977 103.92579 200.72814 103.06531 201.17969 101.9082 C 202.53435 101.68242 203.72033 101.09041 204.73633 100.13086 C 205.75233 99.143082 206.52823 97.844992 207.06445 96.236328 L 206.55664 95.855469 C 205.79464 97.323026 204.98925 98.437214 204.14258 99.199219 C 203.29592 99.932994 202.43544 100.41289 201.56055 100.63867 C 201.61705 100.38467 201.65927 100.11621 201.6875 99.833984 C 201.7157 99.551757 201.73047 99.241009 201.73047 98.902344 C 201.73047 97.632345 201.51903 96.391288 201.0957 95.177734 C 200.70059 93.964174 200.29052 92.820494 199.86719 91.748047 C 199.47208 90.647383 199.27539 89.674784 199.27539 88.828125 C 199.27539 88.433008 199.30297 88.122266 199.35938 87.896484 C 199.44407 87.67071 199.48633 87.47207 199.48633 87.302734 C 199.45813 87.07696 199.35878 86.880273 199.18945 86.710938 C 199.04834 86.541608 198.80936 86.457031 198.4707 86.457031 C 197.9627 86.457031 197.51033 86.696003 197.11523 87.175781 C 196.74833 87.627336 196.56641 88.41799 196.56641 89.546875 L 196.56641 89.970703 C 196.03019 91.156034 195.38115 92.24269 194.61914 93.230469 C 193.88537 94.190026 193.16454 95.035762 192.45898 95.769531 C 192.31788 95.910644 192.09169 96.0375 191.78125 96.150391 C 191.77925 96.151038 191.77639 96.153597 191.77539 96.154297 L 191.44336 95.855469 C 191.36206 96.058602 191.27747 96.257237 191.18945 96.453125 C 191.07849 96.517995 190.96935 96.579673 190.85156 96.658203 C 190.51289 96.855755 190.22969 97.181257 190.00391 97.632812 C 189.82779 97.985062 189.72233 98.451833 189.68359 99.027344 C 189.46286 99.322112 189.23169 99.606485 188.98828 99.876953 C 187.97228 100.97761 186.88563 101.8381 185.72852 102.45898 C 184.57142 103.07987 183.45722 103.39062 182.38477 103.39062 C 181.19944 103.39062 180.39599 103.06514 179.97266 102.41602 C 179.57755 101.73869 179.37891 101.00506 179.37891 100.21484 C 179.37891 99.283513 179.57755 98.266679 179.97266 97.166016 C 180.39599 96.037124 180.93096 94.979967 181.58008 93.992188 C 182.25741 92.976192 182.97628 92.158001 183.73828 91.537109 C 184.5285 90.888002 185.27686 90.5625 185.98242 90.5625 C 186.29287 90.5625 186.50431 90.632321 186.61719 90.773438 C 186.73009 90.886327 186.78711 91.057428 186.78711 91.283203 C 186.78711 92.129869 186.63271 92.821205 186.32227 93.357422 C 186.01182 93.893646 185.71386 94.259472 185.43164 94.457031 C 185.77031 94.993248 186.20791 95.261719 186.74414 95.261719 C 187.39324 95.261719 187.90265 94.895884 188.26953 94.162109 C 188.66464 93.400111 188.86133 92.622252 188.86133 91.832031 C 188.86133 91.04181 188.59286 90.350482 188.05664 89.757812 C 187.54864 89.165143 186.70291 88.869141 185.51758 88.869141 C 184.36046 88.869141 183.21678 89.179896 182.08789 89.800781 C 180.98723 90.421672 179.98514 91.267397 179.08203 92.339844 C 178.17892 93.384062 177.46005 94.570047 176.92383 95.896484 C 176.64538 96.585288 176.4405 97.28231 176.30664 97.986328 C 175.50319 99.29654 174.71968 100.28368 173.95508 100.93359 C 172.82619 101.89315 171.78182 102.37305 170.82227 102.37305 C 170.20138 102.37305 169.72148 102.23339 169.38281 101.95117 C 169.07237 101.64072 168.91602 101.03397 168.91602 100.13086 C 168.91602 99.199524 169.1294 98.224979 169.55273 97.208984 C 170.00428 96.164766 170.51172 95.162681 171.07617 94.203125 C 171.66884 93.243568 172.17627 92.397839 172.59961 91.664062 C 173.05116 90.930288 173.27734 90.378607 173.27734 90.011719 C 173.27734 89.616609 173.15049 89.320599 172.89648 89.123047 C 172.64249 88.897266 172.34647 88.785156 172.00781 88.785156 C 171.38692 88.785156 170.76542 89.095906 170.14453 89.716797 C 169.52365 90.309459 168.94443 91.085365 168.4082 92.044922 C 167.87198 93.004478 167.39208 94.034102 166.96875 95.134766 C 166.60575 96.120046 166.31773 97.068602 166.09766 97.982422 C 165.29704 99.196021 164.41627 100.22487 163.45117 101.0625 C 161.98361 102.33251 160.54392 102.9668 159.13281 102.9668 C 158.34259 102.9668 157.76532 102.72783 157.39844 102.24805 C 157.03155 101.76828 156.84766 100.94813 156.84766 99.791016 C 156.84766 98.408133 157.05909 96.997929 157.48242 95.558594 C 157.93398 94.091037 158.45617 92.666092 159.04883 91.283203 L 159.30273 91.283203 L 159.55664 91.283203 C 160.74197 91.254973 161.98303 91.197951 163.28125 91.113281 C 164.57947 91.028621 166.00636 90.914543 167.55859 90.773438 L 167.55859 89.376953 C 166.51437 89.489844 165.4828 89.574414 164.4668 89.630859 C 163.47902 89.659089 162.36482 89.673828 161.12305 89.673828 L 160.48828 89.673828 L 159.81055 89.673828 C 160.60076 88.09338 161.41895 86.611405 162.26562 85.228516 C 163.11229 83.81741 163.81837 82.591093 164.38281 81.546875 C 164.97548 80.502657 165.27148 79.697259 165.27148 79.132812 C 165.27148 78.737702 165.14464 78.441692 164.89062 78.244141 C 164.63664 78.018359 164.36816 77.90625 164.08594 77.90625 z M 67.238281 79.306641 A 18.176747 19.950369 60 0 1 82.388672 87.960938 A 18.176747 19.950369 60 0 1 84.359375 99.556641 A 18.176747 19.950369 60 0 0 75.359375 102.38281 A 18.176747 19.950369 60 0 0 68.410156 108.76562 A 18.176747 19.950369 60 0 1 59.353516 101.25977 A 18.176747 19.950369 60 0 1 59.375 83.921875 L 64.896484 84.457031 L 67.238281 79.306641 z M 175.68945 81.25 C 174.89923 81.25 174.13808 81.488972 173.4043 81.96875 C 172.67052 82.448528 172.30273 83.027747 172.30273 83.705078 C 172.30273 84.269524 172.51417 84.692383 172.9375 84.974609 C 173.38906 85.228606 173.88369 85.355469 174.41992 85.355469 C 175.18191 85.355469 175.888 85.087005 176.53711 84.550781 C 177.18622 83.986342 177.50977 83.409075 177.50977 82.816406 C 177.50977 82.223743 177.32587 81.813665 176.95898 81.587891 C 176.62031 81.362116 176.19745 81.25 175.68945 81.25 z M 66.230469 86.75 L 66.785156 92.392578 L 62.568359 95.876953 L 67.970703 97.291016 L 70.066406 102.60352 L 72.851562 97.833984 L 78.363281 97.632812 L 74.681641 93.269531 L 75.992188 87.833984 L 70.933594 89.908203 L 66.230469 86.75 z M 148.92578 89.84375 C 149.32089 89.84375 149.6169 89.998145 149.81445 90.308594 C 150.012 90.590814 150.11133 91.057917 150.11133 91.707031 C 150.11133 92.666581 149.87236 93.709006 149.39258 94.837891 C 148.9128 95.966777 148.33358 97.025899 147.65625 98.013672 C 147.26114 97.5339 146.95039 96.870103 146.72461 96.023438 C 146.52705 95.176772 146.42969 94.457903 146.42969 93.865234 C 146.42969 92.708119 146.71094 91.748326 147.27539 90.986328 C 147.83983 90.224323 148.38956 89.84375 148.92578 89.84375 z M 196.9043 91.664062 C 197.21475 92.962284 197.5255 94.230886 197.83594 95.472656 C 198.14638 96.714432 198.31552 97.970235 198.34375 99.240234 C 198.34375 99.38134 198.32888 99.594733 198.30078 99.876953 C 198.30078 100.13096 198.2732 100.35518 198.2168 100.55273 C 197.08791 100.27051 196.08583 99.792558 195.21094 99.115234 C 194.33605 98.437897 193.67225 97.717083 193.2207 96.955078 C 193.81336 96.334193 194.44961 95.516002 195.12695 94.5 C 195.80428 93.483998 196.3963 92.538952 196.9043 91.664062 z M 192.58594 98.478516 C 193.09394 99.155847 193.81281 99.819637 194.74414 100.46875 C 195.67547 101.11786 196.71985 101.57022 197.87695 101.82422 C 197.59473 102.36044 197.21416 102.76856 196.73438 103.05078 C 196.2546 103.33301 195.73241 103.47461 195.16797 103.47461 C 194.12375 103.47461 193.33309 103.06453 192.79688 102.24609 C 192.26065 101.42764 191.99414 100.55438 191.99414 99.623047 C 191.99414 98.94571 192.19083 98.563184 192.58594 98.478516 z M 84.632812 104.0918 C 83.835885 104.09179 83.041563 104.15222 82.253906 104.27344 C 82.765837 104.79193 83.216022 105.50381 83.560547 106.4668 C 83.560547 106.4668 82.83437 106.33925 81.677734 106.32031 C 81.743214 107.63005 82.234897 109.27578 81.228516 111.75586 C 81.228516 111.75586 79.338245 110.23862 77.154297 109.1875 C 76.667973 110.33766 76.544922 111.12109 76.544922 111.12109 C 74.957799 110.23792 74.131339 109.32374 73.796875 108.45117 C 72.913822 109.29897 72.132663 110.2476 71.470703 111.27734 C 72.027309 112.59684 73.497509 113.76562 76.345703 114.48828 C 76.345703 114.48828 76.509593 113.3208 77.1875 111.61914 C 80.344938 113.24976 82.306641 114.45312 82.306641 114.45312 C 83.707407 110.78414 83.753121 109.43158 83.634766 107.47656 C 85.297467 107.53746 86.341797 107.74805 86.341797 107.74805 C 86.264977 106.17751 85.935684 104.98615 85.410156 104.11133 C 85.151549 104.09853 84.89173 104.0918 84.632812 104.0918 z M 80.705078 104.75781 C 79.448423 104.87331 78.242455 105.25669 77.167969 105.86914 C 76.523283 106.23661 75.925098 106.68608 75.392578 107.21094 C 75.120497 107.98828 75.186874 108.78427 75.876953 109.37305 C 75.876953 109.37305 76.374735 108.14213 77.037109 108.03516 C 77.037109 108.03516 78.631933 108.81579 80.511719 108.73633 C 80.511719 108.73633 79.467776 106.8303 79.724609 106.26562 C 80.064699 105.51547 81.792969 105.83594 81.792969 105.83594 C 81.638155 105.38408 81.232425 105.00951 80.705078 104.75781 z M 127.99805 106.69141 C 127.01027 108.94918 126.03572 110.64259 125.07617 111.77148 C 124.11662 112.90036 123.36825 113.46484 122.83203 113.46484 C 122.5498 113.46484 122.33838 113.33798 122.19727 113.08398 C 122.08438 112.82998 122.0293 112.56152 122.0293 112.2793 C 122.0293 111.57375 122.3381 110.88241 122.95898 110.20508 C 123.57987 109.52775 124.34298 108.8787 125.24609 108.25781 C 126.17742 107.66515 127.09494 107.14297 127.99805 106.69141 z "
       xlink:href="#path856-3"
       id="path104"
       inkscape:href="#path856-3"
       transform="translate(-45.574496,-70.695767)"
       d="m 65.882812,74.927734 c -1.758688,-7.32e-4 -3.523488,0.178059 -5.257812,0.53125 a 2.2193419,2.2193419 0 0 0 -0.722656,0.28711 2.2193419,2.2193419 0 0 0 -0.886719,0.912109 c -3.249603,3.858042 -5.363562,8.615534 -5.923828,13.519531 -0.575757,5.039585 0.474682,10.193476 2.976562,14.527346 2.668772,4.62191 6.976761,8.2745 12.03125,10.22656 l -1.044921,-3.30469 c -1.415717,2.11655 1.91058,-2.70307 0.43164,-0.625 -0.404235,0.568 -0.0088,0.004 0.123047,-0.16797 0.350583,-0.45726 1.445864,-1.92798 0.326172,-0.44726 -1.540849,2.03767 2.070133,-2.59497 0.46875,-0.59961 -1.601383,1.99536 2.14681,-2.53906 0.486328,-0.58789 -1.660482,1.95117 2.221991,-2.47938 0.503906,-0.57422 -1.718085,1.90516 2.293666,-2.41791 0.519531,-0.56055 -1.774134,1.85737 2.363732,-2.35275 0.535157,-0.54492 -1.828575,1.80783 2.434085,-2.28784 0.552734,-0.53125 -1.881351,1.75659 2.498815,-2.21738 0.566406,-0.51367 -1.932408,1.70371 2.561775,-2.14728 0.580079,-0.49805 -1.981697,1.64923 2.624869,-2.07563 0.595703,-0.48242 -2.029167,1.59321 2.684144,-1.99858 0.609375,-0.46289 -2.07477,1.53569 2.741507,-1.92401 0.623046,-0.44727 -2.11846,1.47675 2.794961,-1.8461 0.634766,-0.42968 -2.160195,1.41641 2.84837,-1.76688 0.648438,-0.41211 -2.199933,1.35476 2.895836,-1.68444 0.658203,-0.39258 -2.2377,1.29178 2.943243,-1.60073 0.669922,-0.37305 -2.273322,1.22768 2.986521,-1.51791 0.679687,-0.35547 -2.306834,1.16245 3.027659,-1.43207 0.689453,-0.33593 -2.338205,1.09613 3.064672,-1.34329 0.697266,-0.31446 -2.367406,1.02883 3.101438,-1.2555 0.707031,-0.29492 -2.394407,0.96058 3.134028,-1.16685 0.714844,-0.27539 -2.419185,0.89146 3.164371,-1.0774 0.722656,-0.25586 -2.441714,0.82154 3.190493,-0.98331 0.728516,-0.23242 -2.461978,0.75089 3.21433,-0.89246 0.734375,-0.21289 -2.479955,0.67957 3.235866,-0.799068 0.740234,-0.19141 -2.495632,0.60766 3.25509,-0.705145 0.746094,-0.16992 -2.508996,0.53523 3.268084,-0.610777 0.748047,-0.14844 -2.520037,0.46234 3.2807,-0.516023 0.751953,-0.12695 -2.528747,0.38907 3.289028,-0.420966 0.753906,-0.105469 -1.835711,0.228459 -0.03444,0.0175 0.548828,-0.05859 a 2.2193419,2.2193419 0 0 0 -2.371093,-2.552735 c -1.228201,0.09955 -2.433035,0.416904 -3.638672,0.712891 a 2.2193419,2.2193419 0 0 0 -0.482422,-1.857422 l -2.957032,-3.503906 1.048829,-4.34375 a 2.2193419,2.2193419 0 0 0 -3,-2.572266 l -3.962891,1.625 -3.720703,-2.498047 a 2.2193419,2.2193419 0 0 0 -0.269531,-0.154297 l 2.060546,-4.529297 a 2.2193419,2.2193419 0 0 0 -1.832031,-3.128906 c -0.61621,0.0059 2.891869,0.216459 1.185547,0.06836 -1.889082,-0.163962 3.160683,0.424738 1.298828,0.150391 -1.861855,-0.274347 3.112775,0.613681 1.285156,0.230469 -1.827618,-0.383213 3.04831,0.794829 1.261719,0.304687 -1.786591,-0.490142 2.975346,0.9756 1.236328,0.38086 -1.739017,-0.594741 2.89025,1.149766 1.205079,0.453125 -1.685172,-0.696641 2.79722,1.324802 1.171874,0.529297 -1.625345,-0.795506 2.690708,1.488682 1.13086,0.597656 -1.559849,-0.891026 2.574937,1.650894 1.085937,0.667969 -1.488999,-0.982925 2.450232,1.80533 1.03711,0.734375 -1.413123,-1.070956 2.318868,1.953724 0.986328,0.798828 -1.332541,-1.154897 2.175306,2.093926 0.927734,0.859375 -1.247571,-1.234552 2.025714,2.227711 0.867188,0.917968 -1.158526,-1.309742 1.868436,2.351009 0.802734,0.970704 -1.065702,-1.380306 1.705718,2.469523 0.736328,1.023437 -0.969389,-1.446086 1.535883,2.57529 0.666016,1.068359 -0.923337,-1.599326 1.255435,2.375736 0.404297,0.736329 -0.851138,-1.639407 1.146778,2.430941 0.36914,0.753906 -0.777637,-1.677036 1.038857,2.481692 0.335938,0.769531 -0.702919,-1.712161 0.929803,2.529887 0.302734,0.785156 -0.627068,-1.74473 0.817751,2.573519 0.267578,0.798828 -0.550173,-1.77469 0.702792,2.61058 0.230469,0.808594 -0.472323,-1.801985 0.590876,2.648826 0.197266,0.822266 -0.39361,-1.82656 0.472333,2.676481 0.158203,0.828125 -0.31413,-1.848357 0.358985,2.70521 0.125,0.837891 -0.233985,-1.86732 0.239215,2.727142 0.08594,0.84375 -0.153278,-1.883393 0.122902,2.744178 0.05078,0.847656 -0.07212,-1.896523 0.0043,2.756266 0.01367,0.849609 0.0094,-1.906657 -0.11257,2.767263 -0.02148,0.853516 0.09109,-1.913748 -0.231484,2.771261 -0.05859,0.853515 0.172891,-1.91775 -0.350359,2.770186 -0.0957,0.851563 0.242356,-1.825949 -0.352257,2.052893 -0.125,0.806641 0.222225,-0.02899 0.909509,-0.09012 0.208985,-0.02344 -2.539159,0.24168 3.298669,-0.230203 0.757812,-0.0625 l 2.220703,2.42578 c -0.0053,0.0209 -0.01662,0.0626 -0.02148,0.082 -0.02622,0.10464 -0.04711,0.18767 -0.06445,0.26172 -0.0087,0.037 -0.01532,0.0704 -0.02539,0.11914 -0.01007,0.0487 -0.05078,-0.1776 -0.05078,0.47656 0,0.9572 0.510406,1.55042 0.841797,1.85547 0.305796,0.2815 0.564571,0.41678 0.824219,0.54883 0.518829,0.29535 1.071282,0.50561 1.646484,0.6543 0.566011,0.17363 1.11409,0.30469 1.74414,0.30469 a 2.2193419,2.2193419 0 0 0 2.087891,-1.4668 c 0.460682,-1.27967 1.051985,-2.55579 1.779297,-3.83008 l 0.002,-0.002 c 0.76838,-1.32455 1.565047,-2.501273 2.388667,-3.531252 l 0.004,-0.0039 c 0.37681,-0.467947 0.6703,-0.70797 1.01563,-1.083984 -0.17918,0.540924 -0.34383,1.070362 -0.55274,1.632812 -0.36275,0.948689 -0.68514,1.790361 -0.96484,2.517581 -0.31365,0.81549 -0.570314,1.20993 -0.570314,2.27734 0,1.13407 0.960254,2.2103 1.726564,2.58008 0.49334,0.256 1.01307,0.44922 1.55078,0.56445 a 2.2193419,2.2193419 0 0 0 0.0293,0.006 c 0.50714,0.10147 0.95108,0.16992 1.45117,0.16992 a 2.2193419,2.2193419 0 0 0 1.89258,-1.0625 c 0.34003,-0.55642 0.71041,-1.20773 1.11914,-1.96679 a 2.2193419,2.2193419 0 0 0 0.0176,-0.0312 c 0.3587,-0.69178 0.73775,-1.33859 1.14062,-1.94336 l 0.002,-0.004 c 4.8e-4,-7.2e-4 0.001,-0.001 0.002,-0.002 0.60059,-0.89403 0.96809,-1.31615 1.46093,-1.988283 -0.1281,0.60211 -0.27539,1.203733 -0.27539,1.816403 0,1.3429 0.4549,2.70404 1.3125,3.74219 1.01154,1.2245 2.63048,1.77734 4.16602,1.77734 1.7218,0 3.40746,-0.63041 4.72461,-1.74804 0.40343,-0.33339 0.66754,-0.83309 1.0293,-1.21875 0.38529,0.28734 0.68786,0.68335 1.13281,0.86133 a 2.2193419,2.2193419 0 0 0 0.0918,0.0332 c 0.46324,0.16214 0.94854,0.18798 1.42774,0.25781 -0.62254,0.36615 -1.26271,0.71574 -1.8418,1.12109 a 2.2193419,2.2193419 0 0 0 -0.0391,0.0293 c -0.99038,0.72628 -1.84282,1.53426 -2.5293,2.4375 a 2.2193419,2.2193419 0 0 0 -0.0234,0.0332 c -0.79168,1.08337 -1.23242,2.42078 -1.23242,3.76368 0,1.41369 0.5804,2.98983 1.81446,3.875 0.94242,0.68213 2.10779,1.0957 3.2832,1.0957 1.73379,0 3.39153,-0.77634 4.68555,-1.99219 1.20608,-1.10601 2.25334,-2.51562 3.20703,-4.20508 0.82258,-1.41502 1.5567,-2.97667 2.25976,-4.59179 0.95564,-0.46776 1.90915,-0.94935 2.82813,-1.57813 0.13991,-0.0957 0.24039,-0.24152 0.37695,-0.34179 0.94339,1.42249 2.68349,2.21093 4.35547,2.21093 1.7626,0 3.4846,-0.60909 5.01758,-1.65429 0.9739,-0.66403 1.77397,-1.51218 2.59765,-2.33399 a 2.2193419,2.2193419 0 0 0 0.13282,0.0254 c 0.47159,0.0726 0.9519,0.11133 1.4375,0.11133 0.51784,0 1.02003,-0.13059 1.52343,-0.24609 0.26286,1.11921 0.68549,2.17124 1.51368,2.96875 1.19674,1.15242 2.8673,1.7207 4.54492,1.7207 1.78092,0 3.52688,-0.54208 5.09375,-1.51367 0.6682,-0.40217 1.29327,-0.88943 1.90039,-1.41406 0.0827,0.11373 0.11602,0.25767 0.20703,0.36523 1.092,1.29053 2.8087,1.88477 4.48633,1.88477 2.07269,0 4.02173,-0.87196 5.72851,-2.2129 0.26394,0.43712 0.44414,0.92793 0.81836,1.29102 1.36555,1.32537 3.24907,2.02344 5.18555,2.02344 1.83746,0 3.65701,-0.51672 5.36328,-1.44922 0.90396,-0.47129 1.7517,-1.04512 2.55664,-1.69336 0.48753,0.6372 1.05087,1.21418 1.72461,1.66406 1.33077,0.89832 2.94436,1.26758 4.66406,1.26758 1.6167,0 3.17423,-0.36852 4.53711,-1.12305 1.12261,-0.61011 1.96741,-1.58666 2.6211,-2.68554 1.34014,-0.40415 2.60468,-1.02922 3.63672,-2.00391 a 2.2193419,2.2193419 0 0 0 0.0234,-0.0215 c 1.30784,-1.27151 2.26067,-2.907007 2.88672,-4.78516 a 2.2193419,2.2193419 0 0 0 -0.77344,-2.476562 l -0.50781,-0.38086 a 2.2193419,2.2193419 0 0 0 -3.30078,0.751953 c -0.37787,0.727749 -0.71455,1.033726 -1.07422,1.511719 -0.12321,-0.627865 -0.10793,-1.276453 -0.32031,-1.886719 -0.39708,-1.21744 -0.80953,-2.368941 -1.23828,-3.458984 -0.33378,-0.929822 -0.46094,-1.66695 -0.46094,-2.169922 0,-0.291851 0.036,-0.468263 0.0176,-0.394531 l -0.0742,0.242187 c 0.14976,-0.399237 0.26758,-0.834504 0.26758,-1.373047 a 2.2193419,2.2193419 0 0 0 -0.0176,-0.27539 c -0.0842,-0.673806 -0.44774,-1.33356 -0.88867,-1.802735 -0.69315,-0.757053 -1.64802,-0.986328 -2.32813,-0.986328 -1.20394,0 -2.37473,0.685058 -3.06836,1.527344 a 2.2193419,2.2193419 0 0 0 -0.01,0.01172 c -0.89514,1.101674 -1.01812,2.29088 -1.0293,3.582031 -0.43604,0.905861 -0.91875,1.759634 -1.50195,2.515625 a 2.2193419,2.2193419 0 0 0 -0.006,0.0078 c -0.51623,0.675075 -1.00553,1.214312 -1.49414,1.75586 a 2.2193419,2.2193419 0 0 0 -0.77539,0.169922 c 0.19652,-0.657073 0.49414,-1.293466 0.49414,-1.976563 0,-1.280553 -0.50729,-2.577578 -1.35742,-3.53125 -1.0625,-1.22481 -2.65829,-1.65039 -4.20508,-1.65039 -1.55443,0 -3.09053,0.429873 -4.5,1.205078 a 2.2193419,2.2193419 0 0 0 -0.0195,0.01172 c -1.34457,0.758481 -2.54862,1.786279 -3.59961,3.03125 -1.06231,1.230259 -1.91046,2.630365 -2.53125,4.166015 -0.25107,0.621073 -0.40699,1.260297 -0.56055,1.898438 -0.68043,1.078759 -1.32706,1.886594 -1.78906,2.279297 -0.70857,0.602281 -1.05412,0.659399 -1.3457,0.724609 0.0199,-0.556137 0.12526,-1.168071 0.42773,-1.896485 0.41243,-0.951557 0.87226,-1.861466 1.38281,-2.730468 0.002,-0.0037 0.004,-0.008 0.006,-0.01172 0.57736,-0.935497 1.07646,-1.765794 1.50195,-2.501953 l 0.006,-0.0098 c 0.53572,-0.869776 1,-1.530821 1,-2.804687 0,-0.799186 -0.39346,-1.78454 -1.08593,-2.439453 0.003,6e-6 0.006,0.002 0.01,0.002 1.28322,0 2.55333,-0.50465 3.53125,-1.3125 a 2.2193419,2.2193419 0 0 0 0.043,-0.03711 c 0.93892,-0.816445 1.73438,-2.007892 1.73438,-3.408203 0,-1.039274 -0.49891,-2.396764 -1.57813,-3.085937 -0.75798,-0.493016 -1.63952,-0.699219 -2.46094,-0.699219 -1.23761,0 -2.46041,0.400347 -3.5,1.080078 -1.1342,0.741594 -2.10547,2.113099 -2.10547,3.59375 0,1.057814 0.59486,2.273181 1.49414,2.964844 -0.95015,0.109164 -1.78225,0.522946 -2.48828,1.103516 a 2.2193419,2.2193419 0 0 0 -1.76953,-0.603516 c -0.99149,0.107191 -1.9694,0.187949 -2.93164,0.242187 -0.2357,0.0067 -0.55129,0.0046 -0.80273,0.0098 0.19345,-0.332314 0.37617,-0.71487 0.57226,-1.035156 a 2.2193419,2.2193419 0 0 0 0.01,-0.01563 c 0.84913,-1.415206 1.56106,-2.650858 2.14453,-3.728516 v -0.002 c 0.67742,-1.19362 1.17773,-2.168168 1.17773,-3.507813 0,-0.845233 -0.40977,-1.924349 -1.18359,-2.570312 -0.56144,-0.481288 -1.37321,-0.875 -2.2207,-0.875 -1.4655,0 -2.41824,0.790744 -3.23242,1.638672 -0.78171,0.784308 -1.51834,1.753432 -2.27735,2.9375 a 2.2193419,2.2193419 0 0 0 -0.0215,0.03516 c -0.71896,1.168303 -1.43863,2.478806 -2.16797,3.9375 a 2.2193419,2.2193419 0 0 0 -0.008,0.01563 c -0.45974,0.938628 -0.86944,1.939263 -1.29102,2.925781 -0.13594,-0.01607 -0.21976,-0.02308 -0.37891,-0.04297 A 2.2193419,2.2193419 0 0 0 152.76562,87.875 c -1.00709,-1.263285 -2.62429,-1.816406 -4.17773,-1.816406 -1.49748,0 -2.98512,0.40621 -4.12891,1.359375 a 2.2193419,2.2193419 0 0 0 -0.0371,0.03125 c -0.89052,0.774354 -1.59507,1.741181 -2.03711,2.826172 a 2.2193419,2.2193419 0 0 0 -0.002,0.0039 c -1.08064,0.09429 -2.09367,0.528368 -2.90234,1.189453 -6.9e-4,5.61e-4 -0.001,0.0014 -0.002,0.002 -0.82813,0.672269 -1.52384,1.516152 -2.13086,2.494141 a 2.2193419,2.2193419 0 0 0 -0.0293,0.04687 c -0.009,0.01573 -0.0123,0.03501 -0.0215,0.05078 0.20748,-0.853134 0.4121,-1.608225 0.4121,-2.355469 a 2.2193419,2.2193419 0 0 0 -1.7832,-2.175781 c -0.29996,-0.06001 -0.56912,-0.111707 -0.83984,-0.150391 -0.32618,-0.04661 -0.64162,-0.0625 -0.95117,-0.0625 -1.09739,0 -2.33913,0.427093 -3.15039,1.300782 a 2.2193419,2.2193419 0 0 0 -0.0586,0.06641 c -0.52704,0.614871 -0.92621,1.341964 -1.15625,2.117187 -0.17073,0.55043 -0.29905,1.103327 -0.37305,1.658204 -0.0268,0.201207 -0.0359,0.224373 -0.0566,0.333984 -0.41032,0.635675 -0.84873,1.268132 -1.36328,1.894531 a 2.2193419,2.2193419 0 0 0 -0.0293,0.03711 c -0.28057,0.35708 -0.55091,0.560217 -0.82618,0.830079 0.15937,-0.555441 0.32842,-1.114089 0.54297,-1.69336 a 2.2193419,2.2193419 0 0 0 0.01,-0.02539 c 0.25735,-0.720581 0.52054,-1.343837 0.7832,-1.869141 a 2.2193419,2.2193419 0 0 0 0.0176,-0.03516 c 0.27311,-0.57107 0.51434,-0.965083 0.62109,-1.107422 a 2.2193419,2.2193419 0 0 0 0.33008,-2.033203 c -0.28375,-0.850906 -0.89435,-1.436051 -1.48047,-1.816407 -0.42083,-0.296093 -0.88351,-0.536241 -1.37304,-0.71289 -0.42172,-0.192511 -0.80711,-0.384766 -1.53907,-0.384766 -0.90822,0 -1.55845,0.413967 -1.99414,0.78711 -0.43153,0.369583 -0.73302,0.764761 -1.02734,1.205078 -0.57113,0.825407 -1.0619,1.77901 -1.52344,2.886718 a 2.2193419,2.2193419 0 0 0 -0.0117,0.0293 c -0.42661,1.066536 -0.79466,2.164668 -1.09961,3.292969 a 2.2193419,2.2193419 0 0 0 -0.0137,0.05273 c -0.0769,0.315892 -0.12567,0.594967 -0.17969,0.88086 -0.1255,0.223739 -0.25,0.446565 -0.38281,0.669922 a 2.2193419,2.2193419 0 0 0 -0.008,0.01758 c -0.0343,0.05882 -0.0729,0.08531 -0.10742,0.142578 -1.8e-4,6.1e-4 1.7e-4,0.0013 0,0.002 l -0.004,0.01172 c 0.001,-0.0033 9.4e-4,-0.0065 0.002,-0.0098 0.30583,-0.991304 0.47657,-1.983762 0.47657,-2.966797 0,-1.174674 -0.34428,-2.351825 -0.98047,-3.339843 -0.8826,-1.403548 -2.60599,-2.052735 -4.15821,-2.052735 -1.17397,0 -2.3428,0.298473 -3.38086,0.857422 -0.11064,0.05958 -0.19426,0.170302 -0.30273,0.234375 -0.12165,-0.42688 -0.0988,-0.890351 -0.29687,-1.289062 -0.72917,-1.495373 -2.52736,-2.386719 -4.10547,-2.386719 -1.09114,0 -2.1639,0.290929 -3.15235,0.785156 a 2.2193419,2.2193419 0 0 0 -0.0312,0.01563 c -0.88247,0.458891 -1.73265,1.050666 -2.56836,1.757813 a 2.2193419,2.2193419 0 0 0 -0.0332,0.02734 c -0.220777,0.194282 -0.422347,0.445134 -0.638671,0.652344 -0.06934,-0.07695 -0.101552,-0.187294 -0.177735,-0.255859 -0.66453,-0.598062 -1.629879,-0.949219 -2.5,-0.949219 -0.855652,0 -1.59152,0.247832 -2.308593,0.583984 -0.821866,0.352509 -1.806797,0.938728 -2.160157,2.234375 a 2.2193419,2.2193419 0 0 0 -0.01172,0.04492 c -0.224395,0.897593 -0.492988,1.953254 -0.802735,3.164063 -0.312535,1.221734 -0.610382,2.417013 -0.894531,3.582031 -0.28116,1.152759 -0.520191,2.119835 -0.716797,2.906245 -0.01022,0.0394 -0.01374,0.0543 -0.02344,0.0918 C 90.531008,96.447729 89.546594,91.223903 87.013672,86.837891 82.828569,79.5891 74.506393,74.933479 65.884766,74.927734 a 2.2193419,2.2193419 0 0 0 -0.002,0 z m -8.521484,8.0625 a 2.2193419,2.2193419 0 0 0 1.798828,3.140625 l 4.857422,0.470703 a 2.2193419,2.2193419 0 0 0 0.0039,0.365235 l 0.439454,4.466797 -3.306641,2.732422 a 2.2193419,2.2193419 0 0 0 0.851562,3.857422 l 4.314453,1.128906 1.681641,4.265626 a 2.2193419,2.2193419 0 0 0 1.111328,1.1875 c -0.896826,0.92463 -1.802888,1.84663 -2.529297,2.89844 a 2.2193419,2.2193419 0 0 0 1.001954,3.32226 c 0.85979,0.30041 -2.388091,-0.96858 -0.738282,-0.28711 1.788823,0.73889 -2.532331,-1.15301 -0.785156,-0.34375 1.747175,0.80927 -2.470377,-1.25311 -0.767578,-0.375 1.702799,0.87811 -2.405795,-1.35353 -0.75,-0.4082 1.655795,0.94533 -2.334779,-1.44834 -0.728516,-0.4375 1.606263,1.01084 -2.263289,-1.54136 -0.708984,-0.4668 1.554305,1.07456 -2.187524,-1.63446 -0.6875,-0.49804 1.500024,1.13641 -2.10563,-1.72174 -0.66211,-0.52539 1.443521,1.19634 -2.023568,-1.80701 -0.638671,-0.55274 1.384896,1.25428 -1.937531,-1.89023 -0.613282,-0.58008 1.32425,1.31016 -1.847615,-1.96939 -0.585937,-0.60547 1.261678,1.36393 -1.753917,-2.04639 -0.556641,-0.63086 1.197277,1.41554 -1.660433,-2.11923 -0.529297,-0.65429 1.131137,1.46493 -1.561396,-2.18786 -0.498046,-0.67578 1.063349,1.51208 -1.462755,-2.25614 -0.46875,-0.69922 0.994004,1.55691 -1.358733,-2.3162 -0.435547,-0.7168 0.871145,1.50863 -1.359094,-2.667625 -0.589844,-1.10352 0.76925,1.56411 -1.178388,-2.755029 -0.513672,-1.14062 0.664716,1.61441 -0.995308,-2.83319 -0.4375,-1.173828 0.557808,1.659358 -0.81013,-2.899971 -0.361328,-1.201172 0.448802,1.698799 -0.619232,-2.957156 -0.28125,-1.224609 0.337982,1.732546 -0.424871,-3.00457 -0.199219,-1.244141 0.225652,1.760429 -0.233227,-3.038131 -0.121094,-1.255859 0.112134,1.782271 -0.03683,-3.063533 -0.03906,-1.265625 -0.0022,1.797907 0.160033,-3.078667 0.04297,-1.271485 -0.117064,1.807183 0.353077,-3.079491 0.121093,-1.269531 -0.231983,1.80996 0.549701,-3.069799 0.203125,-1.263672 -0.346575,1.806127 0.741659,-3.049504 0.28125,-1.253906 -0.460408,1.795598 0.930461,-3.016602 0.357422,-1.238281 -0.573038,1.77832 1.117603,-2.974977 0.433594,-1.220703 -0.684009,1.754273 1.302625,-2.918788 0.509766,-1.195313 -0.716436,1.55735 0.835863,-1.594412 0.523437,-1.056641 z m 116.898442,4.38086 c 0.0371,0.03125 0.0736,0.07943 0.0547,0.07227 -0.0234,-0.01957 -0.0306,-0.05353 -0.0547,-0.07227 z m -21.35743,0.589844 c 0.0117,0.01628 0.0234,0.03971 0.0176,0.03516 -0.008,-0.01061 -0.01,-0.0246 -0.0176,-0.03516 z m 15.70899,0.15039 c -0.007,0.007 -0.0122,0.01831 -0.0195,0.02539 -0.005,0.0045 -0.0111,0.0072 -0.0156,0.01172 z m -24.75195,2.265625 c -0.0317,-8.02e-4 -0.19765,-0.01855 0.15039,0.05078 -0.048,-0.01106 -0.10421,-0.04154 -0.15039,-0.05078 z m 21.58398,2.791016 c -0.36906,0.744677 -0.57582,1.247944 -0.55664,1.199219 -0.32324,0.877365 -0.5628,1.721734 -0.7832,2.558593 -0.66687,0.978919 -1.36693,1.818246 -2.10743,2.460938 -1.19154,1.030101 -2.10487,1.353411 -2.84765,1.357421 0.0473,0.0329 -0.082,-0.16099 -0.082,-0.953124 0,-1.154152 0.17557,-2.345882 0.54297,-3.597657 0.29001,-0.941037 0.65355,-1.834097 1.0039,-2.736328 0.91895,-0.03275 1.8358,-0.06521 2.8125,-0.128906 0.61544,-0.04013 1.34898,-0.107542 2.01758,-0.160156 z m 25.05859,1.167969 h 0.004 c -0.0129,0.0093 -0.0388,0.02579 -0.0488,0.0332 -0.071,0.0526 0.0454,-0.03355 0.0449,-0.0332 z m -0.24804,0.818359 c -0.005,0.0098 -0.0111,0.01628 -0.01,0.0098 0.002,-0.0039 0.008,-0.0059 0.01,-0.0098 z m -6.86914,0.158203 a 2.2193419,2.2193419 0 0 0 0.16992,0.330078 c 0.62096,0.983167 1.91253,1.837891 3.18945,1.837891 0.41458,0 0.77721,-0.245809 1.16602,-0.398438 -0.10962,0.288372 -0.15889,0.583285 -0.21485,0.875 -0.11345,0.142074 -0.2275,0.288145 -0.34375,0.417969 -0.87038,0.941806 -1.75931,1.63924 -2.67187,2.12891 -0.90595,0.48612 -1.65114,0.66797 -2.29492,0.66797 -0.73504,0 -0.61064,-0.0794 -0.52149,0.0293 -0.16851,-0.31652 -0.26562,-0.6056 -0.26562,-0.98633 0,-0.611056 0.13626,-1.376267 0.45898,-2.281246 0.35301,-0.938762 0.80076,-1.803847 1.32813,-2.621094 z m -72.96875,0.06445 c -0.0104,0.03776 -0.0221,0.07682 -0.0176,0.05859 0.005,-0.01794 0.0131,-0.04076 0.0176,-0.05859 z m 42.67773,0.689453 c -0.005,0.01237 -0.013,0.028 -0.0117,0.02344 0.003,-0.0081 0.008,-0.0153 0.0117,-0.02344 z m -9.58594,2.794922 c 0.0524,0.08075 0.11488,0.154992 0.16992,0.234375 -0.0877,0.08169 -0.17091,0.175192 -0.25976,0.253906 0.0243,-0.129483 0.0132,-0.213045 0.0469,-0.353515 0.0109,-0.04558 0.0315,-0.08931 0.043,-0.134766 z m -68.121091,1.101563 c -1.821037,0.813149 -0.734364,0.215299 -1.771485,0.964839 l 0.53711,-0.91992 z m 9.246093,1.910159 c -0.909127,-1e-5 -1.81704,0.0686 -2.716796,0.20703 a 2.2193419,2.2193419 0 0 0 -1.052735,0.46484 2.2193419,2.2193419 0 0 0 -0.361328,0.004 c -1.573481,0.14462 -3.084627,0.62367 -4.433594,1.39258 -0.80796,0.46053 -1.561234,1.02599 -2.234375,1.68945 a 2.2193419,2.2193419 0 0 0 -0.451172,0.64062 2.2193419,2.2193419 0 0 0 -1.123046,0.57813 c -1.007981,0.96774 -1.900102,2.05226 -2.65625,3.22851 a 2.2193419,2.2193419 0 0 0 -0.177735,2.0625 c 0.918103,2.17648 3.150402,3.67989 6.375,4.49805 a 2.2193419,2.2193419 0 0 0 2.726563,-1.74414 c 0.945334,0.53637 2.61914,1.44922 2.61914,1.44922 a 2.2193419,2.2193419 0 0 0 3.232422,-1.09961 c 0.889964,-2.33105 1.214857,-3.92774 1.361328,-5.33594 0.0079,0.002 0.16211,0.0156 0.16211,0.0156 a 2.2193419,2.2193419 0 0 0 2.65625,-2.28516 c -0.08926,-1.82492 -0.47331,-3.38351 -1.246094,-4.66992 a 2.2193419,2.2193419 0 0 0 -1.792969,-1.07422 c -0.293546,-0.0145 -0.589346,-0.0215 -0.886719,-0.0215 z" />
    <g
       aria-label="myotics"
       transform="matrix(0.64745657,0,0,0.64745657,-102.44913,-68.941762)"
       id="text4713"
       style="font-style:normal;font-variant:normal;font-weight:normal;font-stretch:normal;font-size:65.384px;line-height:1.25;font-family:'Dancing Script';-inkscape-font-specification:'Dancing Script, @wght=700';font-variant-ligatures:normal;font-variant-caps:normal;font-variant-numeric:normal;font-variant-east-asian:normal;font-variation-settings:'wght' 700;white-space:pre;shape-inside:url(#rect4715);fill:url(#linearGradient890);fill-opacity:1;stroke:none">
      <g
         id="g852"
         style="fill:url(#linearGradient856)">
        <path
           id="path856"
           style="font-style:normal;font-variant:normal;font-weight:normal;font-stretch:normal;font-size:65.384px;font-family:'Dancing Script';-inkscape-font-specification:'Dancing Script, @wght=700';font-variant-ligatures:normal;font-variant-caps:normal;font-variant-numeric:normal;font-variant-east-asian:normal;font-variation-settings:'wght' 700;fill:url(#linearGradient867);stroke-width:2.44708"
           transform="matrix(0.40865032,0,0,0.40865032,170.49279,113.83662)"
           d="m 415.49219,6.6445312 c -1.81334,0 -3.89357,1.2263594 -6.24024,3.6796878 -2.34666,2.346668 -4.85286,5.599762 -7.51953,9.759765 -2.55999,4.159987 -5.17318,8.906906 -7.83984,14.240235 -2.56001,5.226669 -4.96118,10.666987 -7.20117,16.320312 -1.17335,-0.106627 -2.34621,-0.21362 -3.51953,-0.320312 -1.06667,-0.106677 -2.45349,-0.267133 -4.16016,-0.480469 v 4.960938 c 0.96,0.426656 1.92085,0.745647 2.88086,0.958984 1.06666,0.106676 1.97405,0.267149 2.7207,0.480469 -2.55999,6.933328 -4.69371,13.653484 -6.40039,20.160156 -0.35415,1.440192 -0.66369,2.81862 -0.93945,4.154297 -0.51483,0.576653 -1.0594,1.114744 -1.63672,1.605468 -2.13333,1.706676 -4.31859,2.933035 -6.5586,3.679688 -2.23999,0.746669 -4.16171,1.119141 -5.76171,1.119141 -1.70666,0 -3.19852,-0.318992 -4.47852,-0.958985 2.88,-4.373339 5.33272,-9.013265 7.35938,-13.919922 2.13333,-4.906656 3.19921,-9.33263 3.19921,-13.279296 0,-3.519994 -0.95891,-6.56109 -2.8789,-9.121094 -1.81334,-2.560005 -5.01295,-3.839844 -9.59961,-3.839844 -4.26666,0 -7.68023,1.065887 -10.24024,3.199219 -2.45332,2.133331 -4.26612,4.641483 -5.43945,7.521484 -1.06666,2.880001 -1.60156,5.439696 -1.60156,7.679688 0,5.226669 0.74691,9.706122 2.24023,13.439453 1.49334,3.62667 3.948,6.986757 7.36133,10.080078 -2.56,2.986661 -5.28015,5.653332 -8.16016,8 -2.77332,2.240008 -5.1745,3.359375 -7.20117,3.359375 -2.02665,0 -3.46698,-0.6934 -4.32031,-2.080078 -0.74667,-1.386663 -1.11914,-3.145965 -1.11914,-5.279297 0,-2.239992 0.31899,-4.692711 0.95898,-7.359375 0.64001,-2.666665 1.49389,-5.279839 2.56055,-7.839844 1.17333,-2.666664 2.39969,-5.174816 3.67969,-7.521484 1.38666,-2.346652 2.72,-4.319923 4,-5.919922 -0.42667,-0.533333 -1.17357,-0.905804 -2.24024,-1.119141 -0.95999,-0.319996 -1.81192,-0.480468 -2.55859,-0.480468 -2.34667,0 -4.69435,0.960864 -7.04101,2.880859 -2.24,1.813335 -4.32024,4.266054 -6.24024,7.359375 -1.81333,3.093337 -3.25169,6.453424 -4.31836,10.080078 -0.289,0.953719 -0.53149,1.903723 -0.74219,2.849609 -2.14367,3.487409 -4.57604,6.443762 -7.32031,8.830079 -4.8,4.159986 -9.43992,7.147602 -13.91992,8.960942 2.24001,-6.080004 4.26479,-12.160241 6.07812,-18.240239 1.81332,-6.079983 3.25365,-11.413324 4.32032,-16 1.17334,-4.69332 1.75976,-7.839455 1.75976,-9.439453 -1.06666,-0.213304 -1.97208,-0.373777 -2.71875,-0.480469 -0.74667,-0.106693 -1.54706,-0.160157 -2.40039,-0.160157 -2.45333,10e-7 -4.3731,0.746896 -5.75976,2.240235 -1.28001,1.493322 -2.18737,3.145649 -2.72071,4.958984 -0.53333,1.706675 -0.9058,3.360939 -1.11914,4.960938 -0.21333,1.599999 -0.42729,2.772878 -0.64062,3.519531 -1.92,3.093337 -4.10722,6.13248 -6.56055,9.119141 -2.34667,2.986661 -4.79939,5.441316 -7.35937,7.361328 -2.45335,1.919995 -4.85257,2.878906 -7.19922,2.878906 -1.81334,0 -3.03968,-0.586423 -3.67969,-1.759766 -0.63999,-1.173326 -0.96094,-2.560157 -0.96094,-4.160156 0,-2.026671 0.32095,-4.425894 0.96094,-7.199219 0.74667,-2.773324 1.65208,-5.600467 2.71875,-8.480468 1.06667,-2.986661 2.18603,-5.653332 3.35937,-8 1.17333,-2.453329 2.24117,-4.319607 3.20118,-5.59961 -0.32002,-0.960006 -1.06691,-1.813877 -2.24024,-2.560547 -1.17332,-0.853329 -2.39968,-1.493265 -3.67969,-1.919921 -1.17334,-0.533333 -2.08071,-0.798829 -2.7207,-0.798829 -1.28,0 -2.77381,1.279856 -4.48047,3.839844 -1.70667,2.453328 -3.35898,5.599446 -4.95898,9.439453 -1.49332,3.733331 -2.77318,7.572865 -3.83985,11.519532 -0.37631,1.547062 -0.65791,2.976977 -0.88671,4.34375 -0.69104,1.251888 -1.40593,2.518363 -2.17774,3.816406 -2.24001,3.83999 -4.69466,7.093101 -7.36133,9.759765 -2.66666,2.666665 -5.44031,4 -8.32031,4 -1.6,0 -2.66589,-0.425967 -3.19922,-1.279297 -0.53333,-0.959989 -0.80078,-1.974349 -0.80078,-3.041015 0,-1.920012 0.4279,-4.212242 1.28125,-6.878906 0.95999,-2.773325 1.86542,-5.653964 2.71875,-8.640625 0.96001,-3.093338 1.44141,-6.025504 1.44141,-8.798828 0,-2.986662 -0.80039,-5.706812 -2.40039,-8.160157 -1.6,-2.559988 -4.48063,-3.839843 -8.64063,-3.839843 -3.09332,0 -6.02549,0.744958 -8.79883,2.238281 -2.77332,1.493338 -5.38651,3.520073 -7.83984,6.080078 -2.34667,2.453328 -4.53388,5.173495 -6.56055,8.160156 0.64001,-1.813335 1.11946,-3.358669 1.43946,-4.638672 0.42665,-1.386662 0.7476,-2.719997 0.96093,-4 0.21334,-1.386662 0.31836,-2.773494 0.31836,-4.160156 0,-3.306658 -0.69146,-6.347753 -2.07812,-9.121094 -1.38666,-2.880001 -4.05334,-4.320312 -8,-4.320312 -2.66667,0 -5.38682,0.693399 -8.16016,2.080078 -2.66666,1.386662 -5.38683,3.254894 -8.16016,5.601562 -2.66666,2.346652 -5.27983,5.013323 -7.83984,8 -2.45333,2.879985 -4.80102,5.812151 -7.04101,8.798829 0.63999,-2.560005 1.17293,-4.852235 1.59961,-6.878907 0.42665,-2.026655 0.64062,-3.573959 0.64062,-4.640625 0,-1.599999 -0.53294,-2.879838 -1.59961,-3.839844 -1.06667,-0.959989 -2.34652,-1.439453 -3.83984,-1.439453 -1.49334,0 -3.2546,0.479464 -5.28125,1.439453 -2.02667,0.85333 -3.19954,1.865721 -3.51953,3.039063 -0.85333,3.413334 -1.86572,7.41334 -3.03907,12 -1.17332,4.58666 -2.29466,9.068083 -3.36132,13.441406 -1.06667,4.37334 -1.97209,8.052402 -2.71876,11.039063 -0.74666,2.879966 -1.12109,4.373776 -1.12109,4.480466 0,0.53334 0.63992,1.11976 1.91992,1.75977 1.28001,0.74665 2.77381,1.33309 4.48047,1.75976 1.70668,0.53334 3.14699,0.80079 4.32031,0.80079 1.92,-5.33333 4.37272,-10.61318 7.35938,-15.839849 3.09334,-5.333329 6.34643,-10.133727 9.75977,-14.40039 3.51999,-4.373324 6.82658,-7.893883 9.91992,-10.560547 3.19999,-2.666665 5.92016,-4 8.16015,-4 1.17333,0 2.02722,0.425967 2.56055,1.279297 0.53333,0.853329 0.80078,2.028145 0.80078,3.521484 0,2.453328 -0.5349,5.49247 -1.60156,9.119141 -1.06667,3.519994 -2.29303,7.147529 -3.67969,10.880859 -1.38666,3.62667 -2.61302,6.826285 -3.67969,9.599609 -1.06666,2.773325 -1.59961,4.639606 -1.59961,5.599606 0,0.96001 0.58644,1.70691 1.75977,2.24024 1.17334,0.63999 2.50668,1.11945 4,1.43945 1.6,0.32 2.87984,0.48047 3.83984,0.48047 1.17333,-1.92 2.50667,-4.26574 4,-7.039062 1.49334,-2.880002 3.09413,-5.600152 4.80078,-8.160157 4.8,-7.146648 8.80001,-12.586982 12,-16.320312 3.30668,-3.733331 6.18535,-5.59961 8.63868,-5.59961 1.06666,0 1.92055,0.372488 2.56054,1.119141 0.74667,0.640009 1.11914,1.866352 1.11914,3.679688 0,1.919995 -0.37247,4.107218 -1.11914,6.560546 -0.74667,2.346668 -1.49358,4.745891 -2.24023,7.199219 -0.74667,2.453328 -1.11914,4.908 -1.11914,7.361328 0,3.413334 1.01241,6.345499 3.03906,8.798829 2.02667,2.45334 5.12125,3.67969 9.28125,3.67969 4.69332,0 8.85185,-1.54534 12.47852,-4.63867 3.62665,-2.986666 6.77474,-6.721177 9.4414,-11.201177 0.0118,-0.01954 0.0214,-0.03905 0.0332,-0.05859 0.33155,1.692428 0.91388,3.154027 1.75195,4.378907 1.49334,1.919995 3.30612,3.306826 5.43945,4.160156 2.13333,0.746664 4.16009,1.121094 6.08008,1.121094 4.58666,0 8.74714,-1.761256 12.48047,-5.28125 3.73333,-3.519994 7.25192,-7.57348 10.55859,-12.160157 -1.06666,4.053344 -2.3465,8.481254 -3.83984,13.28125 -1.38666,4.693317 -2.66652,8.586347 -3.83984,11.679687 -3.41334,1.6 -6.98738,3.3058 -10.72071,5.11914 -3.62667,1.91999 -7.03828,4.00024 -10.23828,6.24023 -3.2,2.34667 -5.81514,4.85287 -7.8418,7.51953 -2.02667,2.77333 -3.03906,5.86792 -3.03906,9.28125 0,3.62667 1.11939,6.23985 3.35938,7.83985 2.34666,1.70666 4.85482,2.55859 7.52148,2.55859 4.26666,0 8.26667,-1.7593 12,-5.2793 3.73333,-3.41333 7.25192,-8.05326 10.5586,-13.91992 3.41331,-5.86666 6.5614,-12.26589 9.4414,-19.19922 4.16,-1.81333 8.26503,-4.10753 12.31836,-6.88086 3.74949,-2.565427 7.12914,-5.639516 10.14844,-9.208977 0.0348,3.642637 0.88353,6.980774 2.55469,10.009767 1.81333,3.19999 5.11992,4.79882 9.91992,4.79882 4.79999,0 9.5469,-1.59883 14.24023,-4.79882 4.69332,-3.199999 8.8538,-6.93451 12.48047,-11.201173 1.17333,0.426673 2.45318,0.801097 3.83984,1.121094 1.38668,0.213336 2.7735,0.320312 4.16016,0.320312 3.73333,0 7.51939,-1.228296 11.35938,-3.68164 0.66818,-0.433415 1.30541,-0.923487 1.92773,-1.439453 -0.2056,1.841827 -0.3125,3.553395 -0.3125,5.121093 0,5.653326 1.44031,9.865347 4.32031,12.638667 2.88,2.77334 6.66604,4.16016 11.35938,4.16016 5.11999,0 10.08086,-1.49379 14.88086,-4.48047 4.79999,-2.87999 9.22597,-6.879988 13.27929,-11.999997 0.70967,-0.873434 1.39124,-1.770155 2.06055,-2.677735 -0.0744,0.836046 -0.12305,1.634936 -0.12305,2.359375 0,3.946651 1.17287,7.306737 3.51954,10.080077 2.34666,2.77332 5.86721,4.1582 10.56054,4.1582 6.61332,0 12.80055,-2.61319 18.56055,-7.839839 2.44793,-2.221269 4.70132,-4.839878 6.7832,-7.8125 0.20784,6.475858 1.94011,11.334979 5.23828,14.533199 3.62667,3.52001 8.2131,5.2793 13.75977,5.2793 5.43999,0 10.88031,-1.49184 16.32031,-4.47852 5.54665,-2.87998 10.56102,-6.826506 15.04102,-11.839838 0.43279,-0.483111 0.84697,-0.979153 1.26172,-1.47461 0.3454,1.839636 0.88006,3.664954 1.61523,5.47461 1.38666,3.306658 3.67891,6.024868 6.87891,8.158198 3.30667,2.24001 7.6276,3.36133 12.96093,3.36133 4.90666,0 9.27914,-1.06784 13.11914,-3.20117 3.94667,-2.13333 6.77381,-5.38643 8.48047,-9.759765 5.12,-0.853329 9.59945,-3.092079 13.43946,-6.71875 3.83999,-3.73333 6.77411,-8.640721 8.80078,-14.720703 l -1.91992,-1.439453 c -2.88001,5.546666 -5.91915,9.758671 -9.11915,12.638672 -3.19999,2.773325 -6.45506,4.588077 -9.76171,5.441406 0.2133,-0.959989 0.37377,-1.97435 0.48047,-3.041015 0.10669,-1.066666 0.16015,-2.239529 0.16015,-3.519532 0,-4.799996 -0.80039,-9.493418 -2.40039,-14.080078 -1.49332,-4.586676 -3.03867,-8.90761 -4.63867,-12.960937 -1.49334,-4.159987 -2.24024,-7.839065 -2.24024,-11.039063 0,-1.493339 0.10698,-2.666202 0.32032,-3.519531 0.31999,-0.853346 0.47851,-1.600242 0.47851,-2.240235 -0.10666,-0.853329 -0.47913,-1.600225 -1.11914,-2.240234 -0.53333,-0.639993 -1.4407,-0.960937 -2.7207,-0.960937 -1.92,0 -3.62582,0.907368 -5.11914,2.720703 -1.38668,1.706659 -2.08008,4.694274 -2.08008,8.960937 v 1.59961 c -2.02666,4.479999 -4.47937,8.586982 -7.35938,12.320312 -2.77334,3.62667 -5.49349,6.826285 -8.16015,9.599609 -0.53333,0.533333 -1.38722,1.012781 -2.56055,1.439454 -0.008,0.003 -0.0159,0.0067 -0.0234,0.0098 l -1.2539,-1.128906 c -0.3071,0.767746 -0.63022,1.519421 -0.96289,2.259766 -0.41938,0.245179 -0.83411,0.482503 -1.2793,0.779297 -1.28,0.746653 -2.34784,1.973012 -3.20117,3.679687 -0.66567,1.331332 -1.06259,3.098276 -1.20899,5.273437 -0.83428,1.11407 -1.7089,2.184803 -2.6289,3.207032 -3.84001,4.160003 -7.94504,7.413114 -12.31836,9.759765 -4.37332,2.346672 -8.58728,3.519532 -12.64063,3.519532 -4.47998,0 -7.51914,-1.22636 -9.11914,-3.679688 -1.49334,-2.560004 -2.24023,-5.333651 -2.24023,-8.320312 0,-3.519994 0.74689,-7.359528 2.24023,-11.519532 1.6,-4.266663 3.6248,-8.266669 6.07813,-12 2.55999,-3.83999 5.28015,-6.932628 8.16015,-9.279297 2.98667,-2.453328 5.81381,-3.679687 8.48047,-3.679687 1.17335,0 1.97374,0.265495 2.40039,0.798828 0.42668,0.426673 0.64063,1.066593 0.64063,1.919922 0,3.199998 -0.58644,5.813188 -1.75977,7.839844 -1.17334,2.026671 -2.29466,3.413487 -3.36132,4.160156 1.28,2.026655 2.93426,3.041016 4.96093,3.041016 2.45333,0 4.37311,-1.386832 5.75977,-4.160157 1.49334,-2.880001 2.24023,-5.81412 2.24023,-8.800781 0,-2.986661 -1.01434,-5.599836 -3.04101,-7.839844 -1.92,-2.239991 -5.11961,-3.359375 -9.59961,-3.359375 -4.37333,0 -8.69232,1.172864 -12.95899,3.519532 -4.16,2.346668 -7.94799,5.546282 -11.36132,9.599609 -3.41334,3.946667 -6.13351,8.42809 -8.16016,13.441406 -1.05242,2.603346 -1.82417,5.235612 -2.33008,7.896485 -3.03666,4.951979 -6.00272,8.686194 -8.89258,11.142578 -4.26666,3.62667 -8.21319,5.439453 -11.83984,5.439453 -2.34667,0 -4.15945,-0.532944 -5.43945,-1.599609 -1.17333,-1.173343 -1.75977,-3.465573 -1.75977,-6.878907 0,-3.519994 0.80039,-7.201025 2.40039,-11.041015 1.70666,-3.946667 3.62643,-7.732705 5.75977,-11.359375 2.24,-3.626654 4.15976,-6.826269 5.75976,-9.59961 1.70666,-2.773324 2.56055,-4.853572 2.56055,-6.240234 0,-1.493339 -0.4814,-2.614659 -1.44141,-3.361328 -0.95999,-0.85333 -2.07937,-1.279297 -3.35937,-1.279297 -2.34667,0 -4.6924,1.172863 -7.03907,3.519531 -2.34665,2.239992 -4.53387,5.174111 -6.56054,8.800781 -2.02667,3.626671 -3.83946,7.519701 -5.43946,11.679688 -1.37195,3.723892 -2.4612,7.305969 -3.29296,10.759766 -3.02594,4.586847 -6.35824,8.474766 -10.00586,11.640624 -5.54667,4.799997 -10.98699,7.199219 -16.32032,7.199219 -2.98666,0 -5.17191,-0.90541 -6.55859,-2.71875 -1.38666,-1.813319 -2.08008,-4.90791 -2.08008,-9.28125 0,-5.226653 0.80039,-10.559994 2.40039,-16 1.70668,-5.546665 3.67993,-10.933503 5.91992,-16.160156 h 0.95899 0.96094 c 4.48,-0.106676 9.17342,-0.318675 14.08007,-0.638672 4.90666,-0.319996 10.2935,-0.747917 16.16016,-1.28125 v -5.279297 c -3.94665,0.426657 -7.84163,0.745648 -11.68164,0.958985 -3.73333,0.106692 -7.94535,0.160156 -12.63867,0.160156 h -2.40039 -2.56055 c 2.98666,-5.973339 6.08125,-11.572159 9.28125,-16.798828 3.2,-5.333329 5.86667,-9.973272 8,-13.919922 2.24001,-3.946667 3.35938,-6.987762 3.35938,-9.121094 0,-1.4933386 -0.47945,-2.6127055 -1.43946,-3.3593749 -0.95999,-0.8533294 -1.97435,-1.2792969 -3.04101,-1.2792969 z m 43.85742,12.6386718 c -2.98666,0 -5.86728,0.907368 -8.64063,2.720703 -2.77332,1.813319 -4.16015,4.000543 -4.16015,6.560547 0,2.133332 0.80039,3.732162 2.40039,4.798828 1.70666,0.960006 3.57294,1.441407 5.59961,1.441407 2.88,0 5.54667,-1.014345 8,-3.041016 2.45333,-2.133332 3.68164,-4.320555 3.68164,-6.560547 0,-2.240008 -0.69342,-3.785342 -2.08008,-4.638672 -1.28,-0.853329 -2.88079,-1.28125 -4.80078,-1.28125 z M 358.19727,51.763672 c 1.49333,0 2.6127,0.586423 3.35937,1.759766 0.74665,1.066665 1.12109,2.827921 1.12109,5.28125 0,3.626654 -0.90738,7.57318 -2.7207,11.839843 -1.81333,4.266664 -4.00054,8.26667 -6.56055,12 -1.49332,-1.813319 -2.66618,-4.321487 -3.51953,-7.521484 -0.74665,-3.199998 -1.11914,-5.920148 -1.11914,-8.160156 0,-4.373324 1.06589,-7.998906 3.19922,-10.878907 2.13333,-2.880001 4.21358,-4.320312 6.24024,-4.320312 z m 181.33203,6.880859 c 1.17332,4.906673 2.3462,9.705118 3.51953,14.398438 1.17331,4.693336 1.81518,9.440238 1.92187,14.240234 0,0.533333 -0.0535,1.333725 -0.16015,2.400391 0,0.960006 -0.10698,1.813894 -0.32032,2.560547 -4.26666,-1.066666 -8.05465,-2.879465 -11.36132,-5.439453 -3.30666,-2.560005 -5.81288,-5.280156 -7.51953,-8.160157 2.23999,-2.346652 4.64116,-5.441243 7.20117,-9.28125 2.55999,-3.83999 4.79874,-7.412076 6.71875,-10.71875 z m -16.32032,25.759766 c 1.92,2.559988 4.64017,5.066187 8.16016,7.519531 3.51999,2.453328 7.4665,4.159151 11.83984,5.119141 -1.06666,2.026671 -2.50502,3.573961 -4.31836,4.640621 -1.81333,1.06667 -3.78854,1.59961 -5.92187,1.59961 -3.94667,0 -6.93233,-1.54533 -8.95898,-4.638669 -2.02668,-3.093321 -3.03907,-6.399928 -3.03907,-9.919922 0,-2.560004 0.74495,-4.000316 2.23828,-4.320312 z M 279.0957,115.44336 c -3.73333,8.53333 -7.41434,14.93451 -11.04101,19.20117 -3.62666,4.26666 -6.4538,6.39844 -8.48047,6.39844 -1.06667,0 -1.86511,-0.47946 -2.39844,-1.43945 -0.42666,-0.96001 -0.64062,-1.9724 -0.64062,-3.03907 0,-2.66666 1.17288,-5.27985 3.51953,-7.83984 2.34667,-2.56001 5.22729,-5.01466 8.64062,-7.36133 3.52,-2.23999 6.98706,-4.21325 10.40039,-5.91992 z" />
      </g>
    </g>
    <path
       id="path41-8-8-9-5-4-4"
       style="display:inline;fill:url(#linearGradient880);fill-opacity:1;fill-rule:evenodd;stroke-width:0.0899479"
       d="m 14.768159,6.2967025 -0.04519,0.099292 a 22.216023,23.471047 60 0 0 -2.948366,25.8148045 22.216023,23.471047 60 0 0 10.908059,9.266115 22.216023,23.471047 60 0 1 8.128136,-7.588902 22.216023,23.471047 60 0 1 10.636388,-3.2448 A 22.216023,23.471047 60 0 0 38.876665,16.563419 22.216023,23.471047 60 0 0 14.85317,6.2476198 a 22.216023,23.471047 60 0 0 -0.0466,0.052863 z m 6.254744,1.6255201 a 18.176747,19.950369 60 0 1 15.150369,8.6531954 18.176747,19.950369 60 0 1 1.970589,11.596512 18.176747,19.950369 60 0 0 -9.001043,2.827053 18.176747,19.950369 60 0 0 -6.948826,6.381608 18.176747,19.950369 60 0 1 -9.057442,-7.504917 18.176747,19.950369 60 0 1 0.02309,-17.338723 l 5.520343,0.535268 z m -1.007948,7.4421464 0.553761,5.643202 -4.216452,3.484587 5.401696,1.414588 2.096437,5.311081 2.784634,-4.768812 5.512099,-0.201889 -3.680967,-4.361888 1.310426,-5.436231 -5.059462,2.073287 z M 30.951437,34.48448 c -0.64469,0.367468 -1.242007,0.817499 -1.774527,1.342356 -0.272082,0.777339 -0.206736,1.573204 0.483341,2.16198 0,0 0.497881,-1.23068 1.160258,-1.337652 0,0 1.595641,0.779141 3.475427,0.699675 0,0 -1.044252,-1.905028 -0.787422,-2.469701 0.340092,-0.750164 2.067417,-0.430428 2.067417,-0.430428 -0.154818,-0.451861 -0.559975,-0.825258 -1.087325,-1.076968 -1.25665,0.115509 -2.462682,0.498291 -3.537169,1.110738 z m -3.371284,2.582819 c -0.883056,0.847802 -1.663562,1.796345 -2.325524,2.826086 0.556602,1.319495 2.026676,2.487943 4.874874,3.210601 0,0 0.164023,-1.167396 0.841926,-2.86905 3.157437,1.630618 5.119222,2.834601 5.119222,2.834601 1.400769,-3.668991 1.446305,-5.022776 1.327954,-6.977795 1.662705,0.06095 2.708082,0.271379 2.708082,0.271379 -0.07682,-1.570541 -0.407529,-2.762123 -0.933054,-3.63695 -0.258607,-0.01283 -0.51749,-0.01934 -0.776413,-0.01934 -0.796929,-6e-6 -1.592664,0.06092 -2.380324,0.182138 0.511935,0.518498 0.963349,1.230503 1.307873,2.193501 0,0 -0.726229,-0.127216 -1.882857,-0.146155 0.06548,1.30974 0.556385,2.95443 -0.449997,5.434513 0,0 -1.8894,-1.517682 -4.073346,-2.568809 -0.486327,1.150169 -0.610548,1.935291 -0.610548,1.935291 -1.587119,-0.883168 -2.413409,-1.797444 -2.747868,-2.670022 z" />
  </g>
</svg>
